<svg width="1004" height="816" viewBox="0 0 1004 816" fill="none" xmlns="http://www.w3.org/2000/svg">
<path d="M0.5 819.121C0.5 819.121 441.149 258.993 659 286C876.851 313.007 1004 0 1004 0V808L307 819.121H0.5Z" fill="#56CCF2"/>
<path d="M0.5 819.121C0.5 819.121 441.149 258.993 659 286C876.851 313.007 1004 0 1004 0V808L307 819.121H0.5Z" fill="#56CCF2"/>
<path d="M54 811.5C54 811.5 406.183 233 644 287C881.817 341 996 69 996 69V811.5H307H54Z" fill="#2D9CDB"/>
<path d="M54 811.5C54 811.5 406.183 233 644 287C881.817 341 996 69 996 69V811.5H307H54Z" fill="#2D9CDB"/>
</svg>
