<svg width="633" height="365" viewBox="0 0 633 365" fill="none" xmlns="http://www.w3.org/2000/svg">
<g clip-path="url(#clip0)">
<path d="M633 65.039V141.864L631.808 139.929L546.28 1.2987L545.475 0H592.873L593.672 1.2987L631.808 63.1039L633 65.039Z" fill="#00B0FF"/>
<path d="M333.875 -0.000191851C290.022 -0.0612764 246.589 9.31886 206.074 27.6012C165.558 45.8836 128.759 72.7077 97.789 106.532C92.4781 112.318 87.3719 118.264 82.4703 124.37C72.4025 136.873 63.1396 150.119 54.7478 164.013C52.3278 168.019 49.9833 172.078 47.7143 176.188C39.5664 190.936 32.3897 206.295 26.2384 222.149C25.5648 223.876 24.9072 225.61 24.2654 227.35C20.695 236.941 17.518 246.658 14.7344 256.5C7.58527 281.737 3.00781 307.756 1.08475 334.084C0.363526 343.896 0.00191819 353.777 -6.86646e-05 363.727V364.376H633V-0.000191851H333.875ZM631.808 363.078H1.19208C1.204 354.247 1.506 345.496 2.09808 336.825C3.88733 310.266 8.3773 284.005 15.4855 258.526C18.2631 248.565 21.4183 238.792 24.9509 229.208C31.4874 211.455 39.3105 194.297 48.3461 177.896C50.6052 173.773 52.9477 169.703 55.3736 165.688C63.747 151.748 72.9918 138.452 83.0426 125.896C144.079 49.5972 233.899 1.29851 333.875 1.29851H631.808V363.078Z" fill="#3F3D56"/>
<path d="M295.401 312.249C303.44 338.606 300.617 363.354 300.617 363.354C300.617 363.354 284.76 345.368 276.721 319.011C268.682 292.654 271.505 267.906 271.505 267.906C271.505 267.906 287.362 285.892 295.401 312.249Z" fill="#00B0FF"/>
<path d="M305.833 312.249C297.794 338.606 300.617 363.354 300.617 363.354C300.617 363.354 316.474 345.368 324.513 319.011C332.552 292.654 329.729 267.906 329.729 267.906C329.729 267.906 313.872 285.892 305.833 312.249Z" fill="#00B0FF"/>
<path d="M309.07 312.534C309.609 340.302 300.206 363.039 300.206 363.039C300.206 363.039 289.929 340.755 289.39 312.987C288.851 285.22 298.255 262.483 298.255 262.483C298.255 262.483 308.532 284.766 309.07 312.534Z" fill="#3F3D56"/>
<path d="M300.201 364.711C312.756 364.711 322.935 364.103 322.935 363.352C322.935 362.601 312.756 361.993 300.201 361.993C287.645 361.993 277.466 362.601 277.466 363.352C277.466 364.103 287.645 364.711 300.201 364.711Z" fill="#3F3D56"/>
<path d="M83.4538 363.774C90.5779 363.774 96.3532 357.483 96.3532 349.722C96.3532 341.961 90.5779 335.669 83.4538 335.669C76.3296 335.669 70.5544 341.961 70.5544 349.722C70.5544 357.483 76.3296 363.774 83.4538 363.774Z" fill="#F2F2F2"/>
<path d="M85.8202 326.987C81.1956 326.994 76.7623 328.999 73.4928 332.562C70.2233 336.125 68.3844 340.955 68.3796 345.994C68.3796 346.097 68.3796 346.201 68.3856 346.305C68.4424 349.813 69.3875 353.235 71.1167 356.195C72.8458 359.155 75.2918 361.537 78.1847 363.078C79.2087 363.628 80.2811 364.063 81.3856 364.377C84.2948 365.208 87.3516 365.208 90.2609 364.377C91.3653 364.063 92.4378 363.628 93.4617 363.078C97.0086 361.196 99.8651 358.059 101.565 354.18C103.265 350.301 103.707 345.909 102.82 341.721C101.934 337.532 99.7699 333.795 96.6823 331.119C93.5947 328.444 89.7657 326.987 85.8202 326.987ZM90.088 363.078C88.6977 363.494 87.2621 363.704 85.8202 363.701C85.5341 363.701 85.248 363.695 84.9679 363.675H84.9619C83.8107 363.613 82.6693 363.413 81.5584 363.078C79.2099 362.377 77.0353 361.112 75.1942 359.376C73.3531 357.64 71.8922 355.477 70.9188 353.045V353.039C69.6006 349.727 69.2431 346.056 69.8944 342.517C70.5456 338.978 72.1743 335.74 74.5623 333.238C76.9503 330.736 79.9833 329.089 83.2548 328.518C86.5262 327.947 89.8798 328.479 92.8659 330.043C95.8521 331.606 98.328 334.127 99.9618 337.267C101.596 340.408 102.309 344.017 102.007 347.611C101.705 351.206 100.401 354.613 98.2707 357.378C96.1404 360.142 93.2852 362.131 90.088 363.078Z" fill="#3F3D56"/>
<path d="M232.456 254.236H135.895V272.916H232.456V254.236Z" fill="#F2F2F2"/>
<path d="M533.465 79.5608H436.903V98.2403H533.465V79.5608Z" fill="#F2F2F2"/>
<path d="M533.465 120.47H436.903V139.149H533.465V120.47Z" fill="#F2F2F2"/>
<path d="M533.465 160.08H436.903V178.76H533.465V160.08Z" fill="#F2F2F2"/>
<path d="M533.465 199.691H436.903V218.37H533.465V199.691Z" fill="#F2F2F2"/>
<path d="M533.465 240.6H436.903V259.279H533.465V240.6Z" fill="#F2F2F2"/>
<path d="M533.465 281.509H436.903V300.188H533.465V281.509Z" fill="#F2F2F2"/>
<path d="M135.299 247.591V273.565H264.047V247.591H135.299ZM262.855 272.266H136.491V248.89H262.855V272.266Z" fill="#3F3D56"/>
<path d="M349.879 107.981C353.171 107.981 355.84 105.073 355.84 101.487C355.84 97.9009 353.171 94.9937 349.879 94.9937C346.587 94.9937 343.919 97.9009 343.919 101.487C343.919 105.073 346.587 107.981 349.879 107.981Z" fill="#3F3D56"/>
<path d="M349.879 148.24C353.171 148.24 355.84 145.333 355.84 141.747C355.84 138.16 353.171 135.253 349.879 135.253C346.587 135.253 343.919 138.16 343.919 141.747C343.919 145.333 346.587 148.24 349.879 148.24Z" fill="#3F3D56"/>
<path d="M349.879 188.5C353.171 188.5 355.84 185.593 355.84 182.006C355.84 178.42 353.171 175.513 349.879 175.513C346.587 175.513 343.919 178.42 343.919 182.006C343.919 185.593 346.587 188.5 349.879 188.5Z" fill="#3F3D56"/>
<path d="M349.879 228.76C353.171 228.76 355.84 225.852 355.84 222.266C355.84 218.68 353.171 215.773 349.879 215.773C346.587 215.773 343.919 218.68 343.919 222.266C343.919 225.852 346.587 228.76 349.879 228.76Z" fill="#3F3D56"/>
<path d="M349.879 269.019C353.171 269.019 355.84 266.112 355.84 262.526C355.84 258.94 353.171 256.032 349.879 256.032C346.587 256.032 343.919 258.94 343.919 262.526C343.919 266.112 346.587 269.019 349.879 269.019Z" fill="#3F3D56"/>
<path d="M349.879 309.279C353.171 309.279 355.84 306.372 355.84 302.786C355.84 299.199 353.171 296.292 349.879 296.292C346.587 296.292 343.919 299.199 343.919 302.786C343.919 306.372 346.587 309.279 349.879 309.279Z" fill="#3F3D56"/>
<path d="M566.844 100.838H403.524V102.136H566.844V100.838Z" fill="#3F3D56"/>
<path d="M566.844 141.097H403.524V142.396H566.844V141.097Z" fill="#3F3D56"/>
<path d="M566.844 181.357H403.524V182.656H566.844V181.357Z" fill="#3F3D56"/>
<path d="M566.844 221.617H403.524V222.916H566.844V221.617Z" fill="#3F3D56"/>
<path d="M566.844 261.877H403.524V263.175H566.844V261.877Z" fill="#3F3D56"/>
<path d="M566.844 302.136H403.524V303.435H566.844V302.136Z" fill="#3F3D56"/>
<path d="M596.265 339.751L580.597 325.747L593.451 308.678L609.119 322.682L596.265 339.751ZM582.275 325.567L596.1 337.923L607.442 322.862L593.617 310.506L582.275 325.567Z" fill="#3F3D56"/>
<path d="M369.262 34.4599L354.515 21.2805L342.418 37.3454L357.164 50.5248L369.262 34.4599Z" fill="#00B0FF"/>
<path d="M278.948 141.747C278.975 160.063 273.629 177.909 263.689 192.682C262.557 194.37 261.371 196.019 260.125 197.61C256.606 202.128 252.672 206.24 248.383 209.883C247.953 210.247 247.518 210.61 247.077 210.968C245.468 212.279 243.813 213.524 242.112 214.701C241.594 215.058 241.075 215.409 240.551 215.747C239.364 216.532 238.156 217.281 236.926 217.993C236.324 218.344 235.716 218.688 235.108 219.019C222.615 225.81 208.698 228.889 194.762 227.943C180.827 226.998 167.368 222.063 155.744 213.636C155.124 213.195 154.516 212.74 153.914 212.273C152.781 211.403 151.667 210.493 150.582 209.558C149.58 208.701 148.603 207.812 147.643 206.903C142.591 202.116 138.115 196.653 134.321 190.643C133.582 189.468 132.867 188.273 132.176 187.058C125.746 175.691 121.823 162.855 120.715 149.558C119.607 136.26 121.345 122.864 125.79 110.422C130.236 97.9789 137.269 86.8287 146.338 77.8467C155.406 68.8647 166.263 62.2955 178.055 58.6551C189.846 55.0148 202.252 54.4024 214.298 56.8661C226.344 59.3298 237.701 64.8024 247.478 72.8542C257.255 80.906 265.185 91.3176 270.645 103.271C276.106 115.225 278.948 128.395 278.948 141.747Z" fill="#3F3D56"/>
<path d="M196.687 137.486C208.615 137.486 218.285 126.951 218.285 113.957C218.285 100.962 208.615 90.4282 196.687 90.4282C184.759 90.4282 175.09 100.962 175.09 113.957C175.09 126.951 184.759 137.486 196.687 137.486Z" fill="#A0616A"/>
<path d="M181.839 125.231C181.839 125.231 189.038 142.878 179.139 149.74C169.24 156.603 195.338 185.033 195.338 185.033L224.134 151.701C224.134 151.701 208.836 140.917 211.536 123.271L181.839 125.231Z" fill="#A0616A"/>
<path d="M248.383 209.883C247.954 210.247 247.518 210.61 247.077 210.967C245.468 212.279 243.813 213.524 242.112 214.701C241.594 215.058 241.075 215.409 240.551 215.747L240.33 214.441L242.404 213.266L248.383 209.883Z" fill="#A0616A"/>
<path d="M240.551 215.747C241.075 215.409 241.594 215.059 242.112 214.701L242.13 214.442L242.404 213.266L253.831 164.448L219.194 147.084L198.94 160.526L180.796 148.338C180.796 148.338 170.138 148.76 167.438 151.701C165.322 154.007 154.945 159.312 150.534 161.507C149.306 162.117 148.543 162.487 148.543 162.487C148.543 162.487 149.223 184.734 150.582 209.559C151.667 210.494 152.781 211.403 153.914 212.273C154.516 212.74 155.124 213.195 155.744 213.636C167.367 222.063 180.827 226.998 194.762 227.943C208.698 228.889 222.615 225.81 235.109 219.02L240.551 215.747Z" fill="#00B0FF"/>
<path d="M155.744 161.507V213.636C155.124 213.195 154.516 212.74 153.914 212.273C152.781 211.403 151.667 210.494 150.582 209.559C149.58 208.701 148.603 207.812 147.643 206.903C142.591 202.117 138.115 196.653 134.321 190.643C133.582 189.468 132.867 188.273 132.175 187.059C132.76 184.968 133.415 182.658 134.142 180.13C138.643 164.448 148.543 161.507 148.543 161.507H155.744Z" fill="#00B0FF"/>
<path d="M240.55 215.747C241.075 215.409 241.594 215.059 242.112 214.702C243.811 213.526 245.466 212.282 247.077 210.968C247.518 210.611 247.953 210.247 248.383 209.883C252.672 206.241 256.606 202.128 260.125 197.611C261.371 196.02 262.557 194.37 263.689 192.682C260.024 180.202 253.831 164.448 253.831 164.448L241.23 163.468C241.23 163.468 236.116 208.065 235.108 219.02L240.55 215.747Z" fill="#00B0FF"/>
<path d="M183.445 86.7238C182.365 87.7257 181.237 88.6657 180.067 89.5398C178.591 90.8735 177.228 92.3485 175.994 93.9471L174.602 95.6456C173.417 97.0911 172.159 98.7408 172.209 100.678C172.228 101.397 172.431 102.094 172.51 102.808C172.825 105.64 171.236 108.753 172.544 111.224C172.922 111.939 173.507 112.498 173.924 113.186C174.454 114.068 174.689 115.123 174.589 116.172C175.995 116.235 177.148 114.863 177.589 113.407C178.029 111.952 177.97 110.38 178.184 108.865C178.399 107.351 179.002 105.747 180.265 105.073C182.961 103.634 186.056 107.375 188.933 106.443C190.941 105.792 192.001 103.079 194.054 102.624C195.524 102.299 196.939 103.25 198.306 103.924C199.672 104.599 201.514 104.911 202.48 103.661C203.119 102.833 203.188 101.507 204.036 100.945C205.053 100.271 206.326 101.209 207.096 102.198C207.866 103.187 208.716 104.396 209.906 104.36C211.484 104.312 212.693 102.022 214.191 102.566C215.882 103.179 215.104 106.127 216.13 107.714C216.997 109.056 218.814 108.977 220.307 108.755C220.558 108.783 220.812 108.741 221.045 108.633C221.278 108.524 221.481 108.353 221.637 108.136C221.793 107.919 221.895 107.662 221.935 107.39C221.974 107.117 221.95 106.839 221.864 106.579L221.24 97.5714C221.238 96.9506 221.113 96.3376 220.875 95.7736C220.441 94.9168 219.542 94.4829 218.93 93.7658C217.645 92.2581 217.707 89.6149 216.108 88.5185C215.278 87.9493 214.193 87.9664 213.369 87.387C212.312 86.6441 211.972 85.1562 211.231 84.0484C210.173 82.4648 208.323 81.7306 206.534 81.5291C204.746 81.3277 202.94 81.5707 201.143 81.5068C197.489 81.3769 193.835 80.2566 190.164 80.9125C186.96 81.4847 185.615 84.446 183.445 86.7238Z" fill="#2F2E41"/>
<path d="M609.18 82.2702C610.558 82.2702 611.675 81.0531 611.675 79.5518C611.675 78.0505 610.558 76.8335 609.18 76.8335C607.801 76.8335 606.684 78.0505 606.684 79.5518C606.684 81.0531 607.801 82.2702 609.18 82.2702Z" fill="#3F3D56"/>
<path d="M591.894 49.1535C593.272 49.1535 594.389 47.9364 594.389 46.4351C594.389 44.9338 593.272 43.7168 591.894 43.7168C590.516 43.7168 589.399 44.9338 589.399 46.4351C589.399 47.9364 590.516 49.1535 591.894 49.1535Z" fill="#3F3D56"/>
<path d="M584.741 13.4391C586.119 13.4391 587.237 12.2221 587.237 10.7208C587.237 9.21948 586.119 8.00244 584.741 8.00244C583.363 8.00244 582.246 9.21948 582.246 10.7208C582.246 12.2221 583.363 13.4391 584.741 13.4391Z" fill="#3F3D56"/>
</g>
<defs>
<clipPath id="clip0">
<rect width="633" height="365" fill="white"/>
</clipPath>
</defs>
</svg>

