<svg width="391" height="278" viewBox="0 0 391 278" fill="none" xmlns="http://www.w3.org/2000/svg">
<g clip-path="url(#clip0)">
<path d="M375.333 63.7543L217.925 131.24L240.607 193.633L256.817 238.217L260.893 249.431L297.166 263.164L298.477 263.66L336.368 278L354.557 270.24L379.336 259.616L391 254.616L375.333 63.7543Z" fill="#F2F2F2"/>
<path d="M379.459 253.194L379.427 254.811L379.336 259.616L354.558 270.24L337.824 277.414L337.118 275.06L336.369 278L298.478 263.66L297.89 249.815V249.812L297.761 246.735L371.99 241.764L373.445 243.989L373.734 244.431L379.459 253.194Z" fill="#2F2E41"/>
<path d="M325.659 106.11C325.659 106.11 320.677 123.999 319.681 123.999C318.684 123.999 329.146 137.912 329.146 137.912L344.589 146.359L350.069 123.502C350.069 123.502 345.087 111.079 346.084 104.619L325.659 106.11Z" fill="#FFB8B8"/>
<path d="M333.629 113.067C343.809 113.067 352.061 104.835 352.061 94.6811C352.061 84.527 343.809 76.2955 333.629 76.2955C323.449 76.2955 315.197 84.527 315.197 94.6811C315.197 104.835 323.449 113.067 333.629 113.067Z" fill="#FFB8B8"/>
<path d="M336.12 132.943L321.393 120.186L312.706 124.495L293.776 136.421C293.776 136.421 298.758 243.753 296.267 247.729C296.267 247.729 301.747 260.151 334.127 252.698C366.508 245.244 374.977 244.25 374.977 244.25L368.003 178.658L376.472 137.415L348.025 117.573L339.109 132.943L336.12 132.943Z" fill="#2D9CDB"/>
<path d="M281.322 174.683C281.322 174.683 273.849 198.038 279.329 200.522C284.809 203.007 289.292 202.013 289.292 202.013L297.761 181.64L281.322 174.683Z" fill="#FFB8B8"/>
<path d="M384.94 170.708L389.424 191.578V233.815C389.424 233.815 382.948 260.648 377.966 253.692C372.984 246.735 373.087 244.532 373.087 244.532L379.461 234.809L376.472 195.056L368.53 176.093L384.94 170.708Z" fill="#FFB8B8"/>
<path d="M351.065 76.2955C351.065 76.2955 345.087 63.3759 333.629 66.3574C322.171 69.3388 315.695 73.811 315.197 78.2831C314.699 82.7553 315.446 89.4636 315.446 89.4636C315.446 89.4636 316.692 80.2708 324.662 82.2584C332.633 84.246 345.087 82.7553 345.087 82.7553L347.08 100.644C347.08 100.644 349.322 97.4141 351.812 99.4017C354.303 101.389 359.036 80.2708 351.065 76.2955Z" fill="#2F2E41"/>
<path d="M368.66 174.811L370.462 184.155L388.117 179.483L384.874 170.857L368.66 174.811Z" fill="#3F3D56"/>
<path d="M280.994 174.518L278.179 183.61L295.964 187.767L297.168 178.633L280.994 174.518Z" fill="#3F3D56"/>
<path d="M365.014 136.421L376.472 137.415C376.472 137.415 389.424 172.696 387.929 173.689C386.435 174.683 368.501 180.646 366.01 179.155C363.519 177.665 365.014 136.421 365.014 136.421Z" fill="#2D9CDB"/>
<path d="M297.761 137.415L293.776 136.421C293.776 136.421 286.303 145.863 283.813 156.795C281.322 167.726 277.835 178.658 279.827 178.658C281.82 178.658 299.754 185.615 299.754 185.615L297.761 137.415Z" fill="#2D9CDB"/>
<path d="M338.033 139.948C340.023 139.948 341.637 138.339 341.637 136.354C341.637 134.369 340.023 132.76 338.033 132.76C336.043 132.76 334.43 134.369 334.43 136.354C334.43 138.339 336.043 139.948 338.033 139.948Z" fill="#3F3D56"/>
<path d="M365.852 199.9L327.364 212.003L311.656 162.301C326.486 160.226 339.315 156.192 350.144 150.198C352.151 167.152 357.279 183.732 365.852 199.9Z" fill="#E6E6E6"/>
<path d="M362.249 205.291L323.761 217.394L308.052 167.692C322.883 165.617 335.712 161.583 346.541 155.589C348.548 172.543 353.676 189.123 362.249 205.291Z" fill="white"/>
<path d="M283.812 186.112C283.812 186.112 277.834 197.044 279.329 200.522C280.823 204.001 293.278 205.988 294.772 205.988C296.267 205.988 314.201 202.013 314.201 202.013C314.201 202.013 341.6 189.093 333.629 182.634C325.659 176.174 310.714 191.578 310.714 191.578H298.758L292.281 187.106L283.812 186.112Z" fill="#FFB8B8"/>
<path d="M65.445 44.9072H0.333984V73.9389H65.445V44.9072Z" fill="#F2F2F2"/>
<path d="M237.071 139.218H225.718V149.21H237.071V139.218Z" fill="#3F3D56"/>
<path d="M214.365 139.218H203.013V149.21H214.365V139.218Z" fill="#3F3D56"/>
<path d="M259.776 117.236H248.424V128.56H259.776V117.236Z" fill="#2D9CDB"/>
<path d="M248.423 128.56H237.071V139.218H248.423V128.56Z" fill="#3F3D56"/>
<path d="M225.718 128.56H214.365V139.218H225.718V128.56Z" fill="#3F3D56"/>
<path d="M91.1554 148.544H79.8027V158.536H91.1554V148.544Z" fill="#2D9CDB"/>
<path d="M193.33 137.886H181.977V148.544H193.33V137.886Z" fill="#3F3D56"/>
<path d="M125.213 137.886H113.861V148.544H125.213V137.886Z" fill="#3F3D56"/>
<path d="M113.861 126.562H102.508V137.886H113.861V126.562Z" fill="#3F3D56"/>
<path d="M170.624 137.886H159.271V148.544H170.624V137.886Z" fill="#3F3D56"/>
<path d="M159.272 126.562H147.919V137.886H159.272V126.562Z" fill="#3F3D56"/>
<path d="M147.919 137.886H136.566V148.544H147.919V137.886Z" fill="#3F3D56"/>
<path d="M102.508 137.886H91.1555V148.544H102.508V137.886Z" fill="#3F3D56"/>
<path d="M181.977 126.562H170.624V137.886H181.977V126.562Z" fill="#2D9CDB"/>
<path d="M221.959 109.075L216.061 102.767L222.384 96.8843L228.282 103.192L221.959 109.075ZM217.001 102.8L221.992 108.137L227.342 103.159L222.351 97.822L217.001 102.8Z" fill="#3F3D56"/>
<path d="M142.129 83.1258H133.482V74.5006H142.129V83.1258ZM134.147 82.4623H141.464V75.164H134.147V82.4623Z" fill="#3F3D56"/>
<path d="M302.736 66.4729H294.089V57.8477H302.736V66.4729ZM294.754 65.8094H302.071V58.5112H294.754V65.8094Z" fill="#3F3D56"/>
<path d="M84.9553 154.562L84.4442 154.064C86.7947 151.406 88.5763 148.297 89.6799 144.927C91.4174 139.712 92.2662 131.475 86.4419 121.853C80.4827 112.008 80.2146 104.011 81.0388 99.0369C81.9359 93.6242 84.2243 90.5902 84.3213 90.4637L84.8888 90.8963C84.866 90.926 82.5974 93.9439 81.7366 99.1952C80.9418 104.043 81.2191 111.846 87.0532 121.484C93.0264 131.352 92.1415 139.818 90.3475 145.182C88.4036 150.994 85.0953 154.419 84.9553 154.562Z" fill="#3F3D56"/>
<path d="M175.109 131.914L174.598 131.416C176.948 128.758 178.73 125.649 179.834 122.28C181.571 117.064 182.42 108.827 176.596 99.2046C170.637 89.3597 170.368 81.3634 171.193 76.389C172.09 70.9763 174.378 67.9422 174.475 67.8158L175.043 68.2483C175.02 68.2781 172.751 71.2959 171.89 76.5472C171.096 81.3954 171.373 89.198 177.207 98.8362C183.18 108.704 182.295 117.17 180.501 122.534C178.557 128.347 175.249 131.771 175.109 131.914Z" fill="#3F3D56"/>
<path d="M253.576 123.254L253.065 122.757C255.415 120.098 257.197 116.989 258.301 113.62C260.038 108.404 260.887 100.167 255.063 90.5451C249.104 80.7002 248.835 72.7039 249.66 67.7295C250.557 62.3168 252.845 59.2827 252.942 59.1563L253.51 59.5888C253.487 59.6186 251.218 62.6364 250.357 67.8878C249.563 72.7359 249.84 80.5385 255.674 90.1768C261.647 100.045 260.762 108.511 258.968 113.875C257.024 119.687 253.716 123.111 253.576 123.254Z" fill="#3F3D56"/>
<path d="M48.6014 54.071H17.1775V54.7834H48.6014V54.071Z" fill="#3F3D56"/>
<path d="M48.6014 59.0669H17.1775V59.7792H48.6014V59.0669Z" fill="#3F3D56"/>
<path d="M48.6014 64.0627H17.1775V64.7751H48.6014V64.0627Z" fill="#3F3D56"/>
<path d="M224.568 6.44368H193.144V7.15605H224.568V6.44368Z" fill="#3F3D56"/>
<path d="M224.568 11.4396H193.144V12.1519H224.568V11.4396Z" fill="#3F3D56"/>
<path d="M224.568 16.4354H193.144V17.1478H224.568V16.4354Z" fill="#3F3D56"/>
<path d="M298.36 117.019H266.937V117.731H298.36V117.019Z" fill="#3F3D56"/>
<path d="M298.36 122.015H266.937V122.727H298.36V122.015Z" fill="#3F3D56"/>
<path d="M298.36 127.011H266.937V127.723H298.36V127.011Z" fill="#3F3D56"/>
<path d="M101.024 166.978H69.6001V167.69H101.024V166.978Z" fill="#3F3D56"/>
<path d="M101.024 171.973H69.6001V172.686H101.024V171.973Z" fill="#3F3D56"/>
<path d="M101.024 176.969H69.6001V177.682H101.024V176.969Z" fill="#3F3D56"/>
<path d="M46.032 36.8432C51.4612 24.6954 59.6441 16.7046 70.3532 13.0924C78.3044 10.4103 87.4996 10.1569 97.6836 12.3388C105.193 13.9599 112.4 16.752 119.037 20.6122C154.391 41.0787 176.249 41.2606 188.359 37.8093C201.638 34.0251 206.498 25.1458 206.545 25.0565L207.135 25.3685C207.087 25.46 202.117 34.5717 188.569 38.4423C180.759 40.6737 171.633 40.7659 161.446 38.7161C148.767 36.1651 134.386 30.2679 118.702 21.1884C112.125 17.3633 104.985 14.5966 97.5436 12.99C80.8407 9.41142 58.4512 10.6918 46.6416 37.1144L46.032 36.8432Z" fill="#2F2E41"/>
<path d="M85.479 90.9249C92.1177 90.9249 97.4995 85.5567 97.4995 78.9348C97.4995 72.3128 92.1177 66.9447 85.479 66.9447C78.8403 66.9447 73.4585 72.3128 73.4585 78.9348C73.4585 85.5567 78.8403 90.9249 85.479 90.9249Z" fill="#3F3D56"/>
<path d="M176.301 69.9422C182.939 69.9422 188.321 64.5741 188.321 57.9521C188.321 51.3302 182.939 45.962 176.301 45.962C169.662 45.962 164.28 51.3302 164.28 57.9521C164.28 64.5741 169.662 69.9422 176.301 69.9422Z" fill="#3F3D56"/>
<path d="M254.768 59.2843C261.407 59.2843 266.788 53.9162 266.788 47.2942C266.788 40.6723 261.407 35.3041 254.768 35.3041C248.129 35.3041 242.747 40.6723 242.747 47.2942C242.747 53.9162 248.129 59.2843 254.768 59.2843Z" fill="#3F3D56"/>
<path d="M74.4603 74.2719H0V36.3033H74.4603V74.2719ZM0.667805 73.6058H73.7925V36.9695H0.667805V73.6058Z" fill="#3F3D56"/>
<path d="M159.272 19.9278H94.1606V48.9596H159.272V19.9278Z" fill="#F2F2F2"/>
<path d="M142.428 29.0916H111.004V29.804H142.428V29.0916Z" fill="#3F3D56"/>
<path d="M142.428 34.0875H111.004V34.7999H142.428V34.0875Z" fill="#3F3D56"/>
<path d="M141.426 38.0842H110.002V38.7966H141.426V38.0842Z" fill="#3F3D56"/>
<path d="M168.287 49.2926H93.8267V11.324H168.287V49.2926ZM94.4945 48.6265H167.619V11.9901H94.4945V48.6265Z" fill="#3F3D56"/>
<path d="M327.225 8.60383H262.114V37.6357H327.225V8.60383Z" fill="#F2F2F2"/>
<path d="M310.381 17.7677H278.957V18.48H310.381V17.7677Z" fill="#3F3D56"/>
<path d="M310.381 22.7635H278.957V23.4759H310.381V22.7635Z" fill="#3F3D56"/>
<path d="M310.381 27.7594H278.957V28.4718H310.381V27.7594Z" fill="#3F3D56"/>
<path d="M336.24 37.9686H261.78V-2.38419e-07H336.24V37.9686ZM262.448 37.3025H335.572V0.666116H262.448V37.3025Z" fill="#3F3D56"/>
</g>
<defs>
<clipPath id="clip0">
<rect width="391" height="278" fill="white"/>
</clipPath>
</defs>
</svg>

