<svg width="1087" height="715" viewBox="0 0 1087 715" fill="none" xmlns="http://www.w3.org/2000/svg">
<g filter="url(#filter0_d)">
<rect x="4" width="456" height="707" fill="#F2F2F2"/>
</g>
<g filter="url(#filter1_d)">
<rect x="740" width="343" height="307" fill="#F2F2F2"/>
</g>
<path d="M160.097 108.176H171.885V110.444H162.757V116.464H170.877V118.76H162.757V128H160.097V108.176ZM174.918 108.176H177.494V110.612H174.918V108.176ZM174.918 113.608H177.494V128H174.918V113.608ZM184.401 113.608L184.709 115.596C185.717 114.103 187.042 113.356 188.685 113.356C189.207 113.356 189.823 113.449 190.533 113.636L190.113 115.988C189.31 115.801 188.685 115.708 188.237 115.708C187.453 115.708 186.799 115.867 186.277 116.184C185.773 116.483 185.315 116.996 184.905 117.724V128H182.273V113.608H184.401ZM193.151 125.032C193.991 125.387 194.71 125.648 195.307 125.816C195.923 125.984 196.558 126.068 197.211 126.068C198.051 126.068 198.705 125.891 199.171 125.536C199.657 125.181 199.899 124.659 199.899 123.968C199.899 123.539 199.769 123.193 199.507 122.932C199.265 122.652 198.985 122.447 198.667 122.316C198.369 122.185 197.799 121.98 196.959 121.7C196.829 121.663 196.334 121.495 195.475 121.196C194.617 120.897 193.954 120.431 193.487 119.796C193.039 119.161 192.815 118.377 192.815 117.444C192.815 116.287 193.263 115.316 194.159 114.532C195.055 113.748 196.371 113.356 198.107 113.356C198.835 113.356 199.517 113.44 200.151 113.608C200.805 113.776 201.486 114 202.195 114.28L201.495 116.352C200.879 116.109 200.301 115.913 199.759 115.764C199.237 115.615 198.686 115.54 198.107 115.54C197.23 115.54 196.567 115.717 196.119 116.072C195.671 116.408 195.447 116.856 195.447 117.416C195.447 117.939 195.625 118.331 195.979 118.592C196.334 118.835 196.903 119.096 197.687 119.376C197.893 119.432 198.079 119.497 198.247 119.572L198.919 119.824C199.703 120.085 200.329 120.347 200.795 120.608C201.281 120.869 201.691 121.271 202.027 121.812C202.363 122.335 202.531 123.035 202.531 123.912C202.531 125.293 202.037 126.367 201.047 127.132C200.077 127.879 198.807 128.252 197.239 128.252C196.325 128.252 195.475 128.159 194.691 127.972C193.907 127.767 193.123 127.496 192.339 127.16L193.151 125.032ZM204.822 115.624V113.608H207.566L208.014 109.408H209.974V113.608H214.37V115.624H209.974V123.576C209.974 125.237 210.674 126.068 212.074 126.068C212.634 126.068 213.324 125.937 214.146 125.676L214.594 127.524C213.567 127.953 212.568 128.168 211.598 128.168C210.347 128.168 209.32 127.795 208.518 127.048C207.734 126.301 207.342 125.191 207.342 123.716V115.624H204.822ZM232.103 113.356C233.633 113.356 234.8 113.795 235.603 114.672C236.424 115.549 236.835 116.819 236.835 118.48V128H234.203V118.676C234.203 117.537 233.979 116.716 233.531 116.212C233.101 115.689 232.401 115.428 231.431 115.428C230.553 115.428 229.751 115.633 229.023 116.044C228.295 116.436 227.697 116.987 227.231 117.696V128H224.599V113.608H226.755L227.063 115.624C228.351 114.112 230.031 113.356 232.103 113.356ZM240.214 124.108C240.214 122.577 240.83 121.392 242.062 120.552C243.294 119.712 245.04 119.292 247.298 119.292H249.426V118.732C249.426 117.537 249.174 116.688 248.67 116.184C248.185 115.68 247.345 115.428 246.15 115.428C245.385 115.428 244.704 115.503 244.106 115.652C243.509 115.783 242.744 116.053 241.81 116.464L241.026 114.644C242.781 113.785 244.508 113.356 246.206 113.356C248.241 113.356 249.725 113.795 250.658 114.672C251.592 115.531 252.058 116.903 252.058 118.788V128H250.014C249.996 127.925 249.958 127.748 249.902 127.468C249.846 127.169 249.762 126.787 249.65 126.32C248.306 127.664 246.738 128.336 244.946 128.336C243.509 128.336 242.361 127.953 241.502 127.188C240.644 126.423 240.214 125.396 240.214 124.108ZM242.846 124.052C242.846 124.761 243.07 125.312 243.518 125.704C243.966 126.077 244.61 126.264 245.45 126.264C246.197 126.264 246.925 126.096 247.634 125.76C248.344 125.405 248.941 124.929 249.426 124.332V121.252H247.466C245.936 121.252 244.778 121.485 243.994 121.952C243.229 122.419 242.846 123.119 242.846 124.052ZM273.141 113.356C274.765 113.356 275.988 113.795 276.809 114.672C277.63 115.531 278.041 116.8 278.041 118.48V128H275.409V118.676C275.409 117.537 275.185 116.716 274.737 116.212C274.308 115.689 273.608 115.428 272.637 115.428C271.797 115.428 271.013 115.633 270.285 116.044C269.576 116.436 269.006 116.987 268.577 117.696C268.596 117.864 268.605 118.125 268.605 118.48V128H265.973V118.676C265.973 117.537 265.749 116.716 265.301 116.212C264.872 115.689 264.172 115.428 263.201 115.428C262.361 115.428 261.586 115.633 260.877 116.044C260.168 116.436 259.589 116.977 259.141 117.668V128H256.509V113.608H258.665L258.945 115.568C260.196 114.093 261.782 113.356 263.705 113.356C265.964 113.356 267.448 114.196 268.157 115.876C269.426 114.196 271.088 113.356 273.141 113.356ZM281.477 120.776C281.477 118.424 282.065 116.604 283.241 115.316C284.417 114.009 286.079 113.356 288.225 113.356C290.335 113.356 291.856 113.991 292.789 115.26C293.741 116.511 294.217 118.321 294.217 120.692V121.14H284.165C284.203 122.764 284.585 124.005 285.313 124.864C286.041 125.723 287.087 126.152 288.449 126.152C289.196 126.152 289.915 126.068 290.605 125.9C291.296 125.713 292.061 125.433 292.901 125.06L293.657 126.852C292.705 127.337 291.8 127.692 290.941 127.916C290.083 128.121 289.205 128.224 288.309 128.224C286.144 128.224 284.464 127.571 283.269 126.264C282.075 124.957 281.477 123.128 281.477 120.776ZM288.225 115.428C287.124 115.428 286.237 115.745 285.565 116.38C284.912 117.015 284.483 117.948 284.277 119.18H291.445C291.315 117.892 290.988 116.949 290.465 116.352C289.943 115.736 289.196 115.428 288.225 115.428Z" fill="#2D9CDB" fill-opacity="0.75"/>
<path d="M97.1437 24.092H99.8037V44H97.1437V24.092ZM116.645 22.748V43.972H114.517L114.153 42.208C113.089 43.552 111.671 44.224 109.897 44.224C107.9 44.224 106.341 43.608 105.221 42.376C104.12 41.1253 103.569 39.3427 103.569 37.028C103.569 34.62 104.223 32.744 105.529 31.4C106.855 30.0373 108.665 29.356 110.961 29.356C111.951 29.356 112.968 29.4867 114.013 29.748V22.748H116.645ZM110.065 42.152C111.036 42.152 111.867 41.8907 112.557 41.368C113.267 40.8267 113.752 40.08 114.013 39.128V31.848C113.061 31.568 112.053 31.428 110.989 31.428C109.515 31.428 108.357 31.9227 107.517 32.912C106.677 33.8827 106.257 35.2547 106.257 37.028C106.257 38.6707 106.584 39.94 107.237 40.836C107.909 41.7133 108.852 42.152 110.065 42.152ZM120.167 36.776C120.167 34.424 120.755 32.604 121.931 31.316C123.107 30.0093 124.768 29.356 126.915 29.356C129.024 29.356 130.546 29.9907 131.479 31.26C132.431 32.5107 132.907 34.3213 132.907 36.692V37.14H122.855C122.892 38.764 123.275 40.0053 124.003 40.864C124.731 41.7227 125.776 42.152 127.139 42.152C127.886 42.152 128.604 42.068 129.295 41.9C129.986 41.7133 130.751 41.4333 131.591 41.06L132.347 42.852C131.395 43.3373 130.49 43.692 129.631 43.916C128.772 44.1213 127.895 44.224 126.999 44.224C124.834 44.224 123.154 43.5707 121.959 42.264C120.764 40.9573 120.167 39.128 120.167 36.776ZM126.915 31.428C125.814 31.428 124.927 31.7453 124.255 32.38C123.602 33.0147 123.172 33.948 122.967 35.18H130.135C130.004 33.892 129.678 32.9493 129.155 32.352C128.632 31.736 127.886 31.428 126.915 31.428ZM143.773 29.356C145.303 29.356 146.47 29.7947 147.273 30.672C148.094 31.5493 148.505 32.8187 148.505 34.48V44H145.873V34.676C145.873 33.5373 145.649 32.716 145.201 32.212C144.771 31.6893 144.071 31.428 143.101 31.428C142.223 31.428 141.421 31.6333 140.693 32.044C139.965 32.436 139.367 32.9867 138.901 33.696V44H136.269V29.608H138.425L138.733 31.624C140.021 30.112 141.701 29.356 143.773 29.356ZM151.464 31.624V29.608H154.208L154.656 25.408H156.616V29.608H161.012V31.624H156.616V39.576C156.616 41.2373 157.316 42.068 158.716 42.068C159.276 42.068 159.967 41.9373 160.788 41.676L161.236 43.524C160.21 43.9533 159.211 44.168 158.24 44.168C156.99 44.168 155.963 43.7947 155.16 43.048C154.376 42.3013 153.984 41.1907 153.984 39.716V31.624H151.464ZM164.353 24.176H166.929V26.612H164.353V24.176ZM164.353 29.608H166.929V44H164.353V29.608ZM170.14 31.624V29.608H172.884L173.332 25.408H175.292V29.608H179.688V31.624H175.292V39.576C175.292 41.2373 175.992 42.068 177.392 42.068C177.952 42.068 178.643 41.9373 179.464 41.676L179.912 43.524C178.885 43.9533 177.887 44.168 176.916 44.168C175.665 44.168 174.639 43.7947 173.836 43.048C173.052 42.3013 172.66 41.1907 172.66 39.716V31.624H170.14ZM192.017 29.608H194.565L187.145 50.888H184.765L187.117 44H186.025L180.929 29.608H183.645L187.873 41.788L192.017 29.608ZM204.248 24.176H206.824V26.612H204.248V24.176ZM204.248 29.608H206.824V44H204.248V29.608ZM219.023 29.356C220.553 29.356 221.72 29.7947 222.523 30.672C223.344 31.5493 223.755 32.8187 223.755 34.48V44H221.123V34.676C221.123 33.5373 220.899 32.716 220.451 32.212C220.021 31.6893 219.321 31.428 218.351 31.428C217.473 31.428 216.671 31.6333 215.943 32.044C215.215 32.436 214.617 32.9867 214.151 33.696V44H211.519V29.608H213.675L213.983 31.624C215.271 30.112 216.951 29.356 219.023 29.356ZM226.63 31.624V29.608H229.15V27.48C229.15 25.8373 229.58 24.6333 230.438 23.868C231.297 23.1027 232.398 22.72 233.742 22.72C234.396 22.72 234.984 22.7853 235.506 22.916C236.029 23.028 236.589 23.2147 237.186 23.476L236.402 25.324C235.544 24.988 234.741 24.82 233.994 24.82C233.304 24.82 232.762 25.0347 232.37 25.464C231.978 25.8933 231.782 26.5 231.782 27.284V29.608H236.206V31.624H231.782V48.368H229.15V31.624H226.63ZM237.444 36.776C237.444 34.4427 238.032 32.6227 239.208 31.316C240.403 30.0093 242.092 29.356 244.276 29.356C246.46 29.356 248.14 30.0093 249.316 31.316C250.511 32.6227 251.108 34.4427 251.108 36.776C251.108 39.1093 250.511 40.9387 249.316 42.264C248.14 43.5707 246.46 44.224 244.276 44.224C242.092 44.224 240.403 43.5707 239.208 42.264C238.032 40.9387 237.444 39.1093 237.444 36.776ZM240.132 36.776C240.132 38.5307 240.487 39.8653 241.196 40.78C241.924 41.6947 242.951 42.152 244.276 42.152C245.602 42.152 246.619 41.6947 247.328 40.78C248.056 39.8653 248.42 38.5307 248.42 36.776C248.42 35.0213 248.056 33.696 247.328 32.8C246.619 31.8853 245.602 31.428 244.276 31.428C242.951 31.428 241.924 31.8853 241.196 32.8C240.487 33.696 240.132 35.0213 240.132 36.776ZM256.906 29.608L257.214 31.596C258.222 30.1027 259.548 29.356 261.19 29.356C261.713 29.356 262.329 29.4493 263.038 29.636L262.618 31.988C261.816 31.8013 261.19 31.708 260.742 31.708C259.958 31.708 259.305 31.8667 258.782 32.184C258.278 32.4827 257.821 32.996 257.41 33.724V44H254.778V29.608H256.906ZM282.373 29.356C283.997 29.356 285.22 29.7947 286.041 30.672C286.863 31.5307 287.273 32.8 287.273 34.48V44H284.641V34.676C284.641 33.5373 284.417 32.716 283.969 32.212C283.54 31.6893 282.84 31.428 281.869 31.428C281.029 31.428 280.245 31.6333 279.517 32.044C278.808 32.436 278.239 32.9867 277.809 33.696C277.828 33.864 277.837 34.1253 277.837 34.48V44H275.205V34.676C275.205 33.5373 274.981 32.716 274.533 32.212C274.104 31.6893 273.404 31.428 272.433 31.428C271.593 31.428 270.819 31.6333 270.109 32.044C269.4 32.436 268.821 32.9773 268.373 33.668V44H265.741V29.608H267.897L268.177 31.568C269.428 30.0933 271.015 29.356 272.937 29.356C275.196 29.356 276.68 30.196 277.389 31.876C278.659 30.196 280.32 29.356 282.373 29.356ZM290.654 40.108C290.654 38.5773 291.27 37.392 292.502 36.552C293.734 35.712 295.479 35.292 297.738 35.292H299.866V34.732C299.866 33.5373 299.614 32.688 299.11 32.184C298.625 31.68 297.785 31.428 296.59 31.428C295.825 31.428 295.143 31.5027 294.546 31.652C293.949 31.7827 293.183 32.0533 292.25 32.464L291.466 30.644C293.221 29.7853 294.947 29.356 296.646 29.356C298.681 29.356 300.165 29.7947 301.098 30.672C302.031 31.5307 302.498 32.9027 302.498 34.788V44H300.454C300.435 43.9253 300.398 43.748 300.342 43.468C300.286 43.1693 300.202 42.7867 300.09 42.32C298.746 43.664 297.178 44.336 295.386 44.336C293.949 44.336 292.801 43.9533 291.942 43.188C291.083 42.4227 290.654 41.396 290.654 40.108ZM293.286 40.052C293.286 40.7613 293.51 41.312 293.958 41.704C294.406 42.0773 295.05 42.264 295.89 42.264C296.637 42.264 297.365 42.096 298.074 41.76C298.783 41.4053 299.381 40.9293 299.866 40.332V37.252H297.906C296.375 37.252 295.218 37.4853 294.434 37.952C293.669 38.4187 293.286 39.1187 293.286 40.052ZM305.464 31.624V29.608H308.208L308.656 25.408H310.616V29.608H315.012V31.624H310.616V39.576C310.616 41.2373 311.316 42.068 312.716 42.068C313.276 42.068 313.967 41.9373 314.788 41.676L315.236 43.524C314.21 43.9533 313.211 44.168 312.24 44.168C310.99 44.168 309.963 43.7947 309.16 43.048C308.376 42.3013 307.984 41.1907 307.984 39.716V31.624H305.464ZM318.353 24.176H320.929V26.612H318.353V24.176ZM318.353 29.608H320.929V44H318.353V29.608ZM324.616 36.776C324.616 34.4427 325.204 32.6227 326.38 31.316C327.575 30.0093 329.264 29.356 331.448 29.356C333.632 29.356 335.312 30.0093 336.488 31.316C337.683 32.6227 338.28 34.4427 338.28 36.776C338.28 39.1093 337.683 40.9387 336.488 42.264C335.312 43.5707 333.632 44.224 331.448 44.224C329.264 44.224 327.575 43.5707 326.38 42.264C325.204 40.9387 324.616 39.1093 324.616 36.776ZM327.304 36.776C327.304 38.5307 327.659 39.8653 328.368 40.78C329.096 41.6947 330.123 42.152 331.448 42.152C332.773 42.152 333.791 41.6947 334.5 40.78C335.228 39.8653 335.592 38.5307 335.592 36.776C335.592 35.0213 335.228 33.696 334.5 32.8C333.791 31.8853 332.773 31.428 331.448 31.428C330.123 31.428 329.096 31.8853 328.368 32.8C327.659 33.696 327.304 35.0213 327.304 36.776ZM349.37 29.356C350.901 29.356 352.068 29.7947 352.87 30.672C353.692 31.5493 354.102 32.8187 354.102 34.48V44H351.47V34.676C351.47 33.5373 351.246 32.716 350.798 32.212C350.369 31.6893 349.669 31.428 348.698 31.428C347.821 31.428 347.018 31.6333 346.29 32.044C345.562 32.436 344.965 32.9867 344.498 33.696V44H341.866V29.608H344.022L344.33 31.624C345.618 30.112 347.298 29.356 349.37 29.356ZM358.462 41.032C359.302 41.3867 360.021 41.648 360.618 41.816C361.234 41.984 361.869 42.068 362.522 42.068C363.362 42.068 364.015 41.8907 364.482 41.536C364.967 41.1813 365.21 40.6587 365.21 39.968C365.21 39.5387 365.079 39.1933 364.818 38.932C364.575 38.652 364.295 38.4467 363.978 38.316C363.679 38.1853 363.11 37.98 362.27 37.7C362.139 37.6627 361.645 37.4947 360.786 37.196C359.927 36.8973 359.265 36.4307 358.798 35.796C358.35 35.1613 358.126 34.3773 358.126 33.444C358.126 32.2867 358.574 31.316 359.47 30.532C360.366 29.748 361.682 29.356 363.418 29.356C364.146 29.356 364.827 29.44 365.462 29.608C366.115 29.776 366.797 30 367.506 30.28L366.806 32.352C366.19 32.1093 365.611 31.9133 365.07 31.764C364.547 31.6147 363.997 31.54 363.418 31.54C362.541 31.54 361.878 31.7173 361.43 32.072C360.982 32.408 360.758 32.856 360.758 33.416C360.758 33.9387 360.935 34.3307 361.29 34.592C361.645 34.8347 362.214 35.096 362.998 35.376C363.203 35.432 363.39 35.4973 363.558 35.572L364.23 35.824C365.014 36.0853 365.639 36.3467 366.106 36.608C366.591 36.8693 367.002 37.2707 367.338 37.812C367.674 38.3347 367.842 39.0347 367.842 39.912C367.842 41.2933 367.347 42.3667 366.358 43.132C365.387 43.8787 364.118 44.252 362.55 44.252C361.635 44.252 360.786 44.1587 360.002 43.972C359.218 43.7667 358.434 43.496 357.65 43.16L358.462 41.032Z" fill="#2D9CDB"/>
<path d="M895.245 132.072C896.333 132.376 897.149 132.864 897.693 133.536C898.253 134.192 898.533 135.008 898.533 135.984C898.533 137.552 898.029 138.784 897.021 139.68C896.029 140.56 894.589 141 892.701 141H886.989V124.008H892.005C893.941 124.008 895.397 124.4 896.373 125.184C897.349 125.968 897.837 127.08 897.837 128.52C897.837 130.232 896.973 131.416 895.245 132.072ZM889.269 125.928V131.256H892.005C893.125 131.256 893.973 131.032 894.549 130.584C895.141 130.12 895.437 129.432 895.437 128.52C895.437 126.792 894.293 125.928 892.005 125.928H889.269ZM892.701 139.08C893.805 139.08 894.653 138.816 895.245 138.288C895.837 137.76 896.133 136.992 896.133 135.984C896.133 135.056 895.805 134.36 895.149 133.896C894.509 133.416 893.573 133.176 892.341 133.176H889.269V139.08H892.701ZM909.413 128.664H911.597L905.237 146.904H903.197L905.213 141H904.277L899.909 128.664H902.237L905.861 139.104L909.413 128.664ZM926.304 128.448C927.616 128.448 928.616 128.824 929.304 129.576C930.008 130.328 930.36 131.416 930.36 132.84V141H928.104V133.008C928.104 132.032 927.912 131.328 927.528 130.896C927.16 130.448 926.56 130.224 925.728 130.224C924.976 130.224 924.288 130.4 923.664 130.752C923.04 131.088 922.528 131.56 922.128 132.168V141H919.872V122.784H922.128V130.224C923.216 129.04 924.608 128.448 926.304 128.448ZM934.263 124.008H936.471V126.096H934.263V124.008ZM934.263 128.664H936.471V141H934.263V128.664ZM940.423 138.456C941.143 138.76 941.759 138.984 942.271 139.128C942.799 139.272 943.343 139.344 943.903 139.344C944.623 139.344 945.183 139.192 945.583 138.888C945.999 138.584 946.207 138.136 946.207 137.544C946.207 137.176 946.095 136.88 945.871 136.656C945.663 136.416 945.423 136.24 945.151 136.128C944.895 136.016 944.407 135.84 943.687 135.6C943.575 135.568 943.151 135.424 942.415 135.168C941.679 134.912 941.111 134.512 940.711 133.968C940.327 133.424 940.135 132.752 940.135 131.952C940.135 130.96 940.519 130.128 941.287 129.456C942.055 128.784 943.183 128.448 944.671 128.448C945.295 128.448 945.879 128.52 946.423 128.664C946.983 128.808 947.567 129 948.175 129.24L947.575 131.016C947.047 130.808 946.551 130.64 946.087 130.512C945.639 130.384 945.167 130.32 944.671 130.32C943.919 130.32 943.351 130.472 942.967 130.776C942.583 131.064 942.391 131.448 942.391 131.928C942.391 132.376 942.543 132.712 942.847 132.936C943.151 133.144 943.639 133.368 944.311 133.608C944.487 133.656 944.647 133.712 944.791 133.776L945.367 133.992C946.039 134.216 946.575 134.44 946.975 134.664C947.391 134.888 947.743 135.232 948.031 135.696C948.319 136.144 948.463 136.744 948.463 137.496C948.463 138.68 948.039 139.6 947.191 140.256C946.359 140.896 945.271 141.216 943.927 141.216C943.143 141.216 942.415 141.136 941.743 140.976C941.071 140.8 940.399 140.568 939.727 140.28L940.423 138.456ZM956.834 134.808C956.834 132.808 957.338 131.248 958.346 130.128C959.37 129.008 960.818 128.448 962.69 128.448C964.562 128.448 966.002 129.008 967.01 130.128C968.034 131.248 968.546 132.808 968.546 134.808C968.546 136.808 968.034 138.376 967.01 139.512C966.002 140.632 964.562 141.192 962.69 141.192C960.818 141.192 959.37 140.632 958.346 139.512C957.338 138.376 956.834 136.808 956.834 134.808ZM959.138 134.808C959.138 136.312 959.442 137.456 960.05 138.24C960.674 139.024 961.554 139.416 962.69 139.416C963.826 139.416 964.698 139.024 965.306 138.24C965.93 137.456 966.242 136.312 966.242 134.808C966.242 133.304 965.93 132.168 965.306 131.4C964.698 130.616 963.826 130.224 962.69 130.224C961.554 130.224 960.674 130.616 960.05 131.4C959.442 132.168 959.138 133.304 959.138 134.808ZM985.828 128.664H988.084L984.628 141H981.604L979.156 131.736L976.756 141H973.78L970.324 128.664H972.58L975.364 138.84L978.028 128.664H980.284L983.068 138.84L985.828 128.664ZM997.154 128.448C998.466 128.448 999.466 128.824 1000.15 129.576C1000.86 130.328 1001.21 131.416 1001.21 132.84V141H998.954V133.008C998.954 132.032 998.762 131.328 998.378 130.896C998.01 130.448 997.41 130.224 996.578 130.224C995.826 130.224 995.138 130.4 994.514 130.752C993.89 131.088 993.378 131.56 992.978 132.168V141H990.722V128.664H992.57L992.834 130.392C993.938 129.096 995.378 128.448 997.154 128.448Z" fill="#2D9CDB"/>
<path d="M895.148 237.072C896.236 237.376 897.052 237.864 897.596 238.536C898.156 239.192 898.436 240.008 898.436 240.984C898.436 242.552 897.932 243.784 896.924 244.68C895.932 245.56 894.492 246 892.604 246H886.892V229.008H891.908C893.844 229.008 895.3 229.4 896.276 230.184C897.252 230.968 897.74 232.08 897.74 233.52C897.74 235.232 896.876 236.416 895.148 237.072ZM889.172 230.928V236.256H891.908C893.028 236.256 893.876 236.032 894.452 235.584C895.044 235.12 895.34 234.432 895.34 233.52C895.34 231.792 894.196 230.928 891.908 230.928H889.172ZM892.604 244.08C893.708 244.08 894.556 243.816 895.148 243.288C895.74 242.76 896.036 241.992 896.036 240.984C896.036 240.056 895.708 239.36 895.052 238.896C894.412 238.416 893.476 238.176 892.244 238.176H889.172V244.08H892.604ZM909.315 233.664H911.499L905.139 251.904H903.099L905.115 246H904.179L899.811 233.664H902.139L905.763 244.104L909.315 233.664ZM918.79 242.664C918.79 241.352 919.318 240.336 920.374 239.616C921.43 238.896 922.926 238.536 924.862 238.536H926.686V238.056C926.686 237.032 926.47 236.304 926.038 235.872C925.622 235.44 924.902 235.224 923.878 235.224C923.222 235.224 922.638 235.288 922.126 235.416C921.614 235.528 920.958 235.76 920.158 236.112L919.486 234.552C920.99 233.816 922.47 233.448 923.926 233.448C925.67 233.448 926.942 233.824 927.742 234.576C928.542 235.312 928.942 236.488 928.942 238.104V246H927.19C927.174 245.936 927.142 245.784 927.094 245.544C927.046 245.288 926.974 244.96 926.878 244.56C925.726 245.712 924.382 246.288 922.846 246.288C921.614 246.288 920.63 245.96 919.894 245.304C919.158 244.648 918.79 243.768 918.79 242.664ZM921.046 242.616C921.046 243.224 921.238 243.696 921.622 244.032C922.006 244.352 922.558 244.512 923.278 244.512C923.918 244.512 924.542 244.368 925.15 244.08C925.758 243.776 926.27 243.368 926.686 242.856V240.216H925.006C923.694 240.216 922.702 240.416 922.03 240.816C921.374 241.216 921.046 241.816 921.046 242.616ZM947.013 233.448C948.405 233.448 949.453 233.824 950.157 234.576C950.861 235.312 951.213 236.4 951.213 237.84V246H948.957V238.008C948.957 237.032 948.765 236.328 948.381 235.896C948.013 235.448 947.413 235.224 946.581 235.224C945.861 235.224 945.189 235.4 944.565 235.752C943.957 236.088 943.469 236.56 943.101 237.168C943.117 237.312 943.125 237.536 943.125 237.84V246H940.869V238.008C940.869 237.032 940.677 236.328 940.293 235.896C939.925 235.448 939.325 235.224 938.493 235.224C937.773 235.224 937.109 235.4 936.501 235.752C935.893 236.088 935.397 236.552 935.013 237.144V246H932.757V233.664H934.605L934.845 235.344C935.917 234.08 937.277 233.448 938.925 233.448C940.861 233.448 942.133 234.168 942.741 235.608C943.829 234.168 945.253 233.448 947.013 233.448ZM960.855 233.448C962.567 233.448 963.895 233.984 964.839 235.056C965.799 236.112 966.279 237.632 966.279 239.616C966.279 241.68 965.711 243.296 964.575 244.464C963.455 245.616 961.911 246.192 959.943 246.192C958.647 246.192 957.391 245.952 956.175 245.472L955.095 245.208V227.784H957.351V235.008C958.215 233.968 959.383 233.448 960.855 233.448ZM959.919 244.416C961.183 244.416 962.175 244 962.895 243.168C963.615 242.32 963.975 241.136 963.975 239.616C963.975 238.208 963.687 237.128 963.111 236.376C962.551 235.608 961.751 235.224 960.711 235.224C959.879 235.224 959.167 235.448 958.575 235.896C957.983 236.344 957.575 236.96 957.351 237.744V244.056C958.167 244.296 959.023 244.416 959.919 244.416ZM979.711 233.664V246H977.863L977.599 244.296C976.527 245.576 975.135 246.216 973.423 246.216C972.031 246.216 970.983 245.848 970.279 245.112C969.575 244.36 969.223 243.264 969.223 241.824V233.664H971.479V241.656C971.479 242.632 971.663 243.344 972.031 243.792C972.415 244.224 973.023 244.44 973.855 244.44C974.607 244.44 975.295 244.272 975.919 243.936C976.543 243.584 977.055 243.104 977.455 242.496V233.664H979.711ZM983.736 227.784H985.944V246H983.736V227.784ZM989.056 242.664C989.056 241.352 989.584 240.336 990.64 239.616C991.696 238.896 993.192 238.536 995.128 238.536H996.952V238.056C996.952 237.032 996.736 236.304 996.304 235.872C995.888 235.44 995.168 235.224 994.144 235.224C993.488 235.224 992.904 235.288 992.392 235.416C991.88 235.528 991.224 235.76 990.424 236.112L989.752 234.552C991.256 233.816 992.736 233.448 994.192 233.448C995.936 233.448 997.208 233.824 998.008 234.576C998.808 235.312 999.208 236.488 999.208 238.104V246H997.456C997.44 245.936 997.408 245.784 997.36 245.544C997.312 245.288 997.24 244.96 997.144 244.56C995.992 245.712 994.648 246.288 993.112 246.288C991.88 246.288 990.896 245.96 990.16 245.304C989.424 244.648 989.056 243.768 989.056 242.664ZM991.312 242.616C991.312 243.224 991.504 243.696 991.888 244.032C992.272 244.352 992.824 244.512 993.544 244.512C994.184 244.512 994.808 244.368 995.416 244.08C996.024 243.776 996.536 243.368 996.952 242.856V240.216H995.272C993.96 240.216 992.968 240.416 992.296 240.816C991.64 241.216 991.312 241.816 991.312 242.616ZM1009.45 233.448C1010.77 233.448 1011.77 233.824 1012.45 234.576C1013.16 235.328 1013.51 236.416 1013.51 237.84V246H1011.25V238.008C1011.25 237.032 1011.06 236.328 1010.68 235.896C1010.31 235.448 1009.71 235.224 1008.88 235.224C1008.13 235.224 1007.44 235.4 1006.81 235.752C1006.19 236.088 1005.68 236.56 1005.28 237.168V246H1003.02V233.664H1004.87L1005.13 235.392C1006.24 234.096 1007.68 233.448 1009.45 233.448ZM1016.46 239.808C1016.46 237.824 1016.95 236.272 1017.94 235.152C1018.94 234.016 1020.41 233.448 1022.36 233.448C1024.23 233.448 1025.66 234.128 1026.63 235.488L1025.12 236.616C1024.74 236.152 1024.32 235.808 1023.87 235.584C1023.44 235.344 1022.94 235.224 1022.36 235.224C1021.22 235.224 1020.34 235.616 1019.7 236.4C1019.07 237.168 1018.76 238.304 1018.76 239.808C1018.76 241.328 1019.08 242.48 1019.72 243.264C1020.38 244.032 1021.3 244.416 1022.5 244.416C1023.18 244.416 1023.74 244.344 1024.21 244.2C1024.67 244.04 1025.19 243.832 1025.77 243.576L1026.39 245.112C1025.21 245.8 1023.86 246.144 1022.34 246.144C1020.4 246.144 1018.94 245.584 1017.94 244.464C1016.95 243.344 1016.46 241.792 1016.46 239.808ZM1028.31 239.808C1028.31 237.792 1028.82 236.232 1029.83 235.128C1030.83 234.008 1032.26 233.448 1034.1 233.448C1035.91 233.448 1037.21 233.992 1038.01 235.08C1038.83 236.152 1039.23 237.704 1039.23 239.736V240.12H1030.62C1030.65 241.512 1030.98 242.576 1031.6 243.312C1032.23 244.048 1033.12 244.416 1034.29 244.416C1034.93 244.416 1035.55 244.344 1036.14 244.2C1036.73 244.04 1037.39 243.8 1038.11 243.48L1038.75 245.016C1037.94 245.432 1037.16 245.736 1036.43 245.928C1035.69 246.104 1034.94 246.192 1034.17 246.192C1032.31 246.192 1030.87 245.632 1029.85 244.512C1028.83 243.392 1028.31 241.824 1028.31 239.808ZM1034.1 235.224C1033.15 235.224 1032.39 235.496 1031.82 236.04C1031.26 236.584 1030.89 237.384 1030.71 238.44H1036.86C1036.75 237.336 1036.47 236.528 1036.02 236.016C1035.57 235.488 1034.93 235.224 1034.1 235.224Z" fill="#2D9CDB"/>
<path d="M890.438 39L888.366 33.176H880.498L878.51 39H875.822L882.654 19.176H885.958L893.042 39H890.438ZM881.282 30.936H887.554L884.362 21.948L881.282 30.936ZM897.877 24.608L898.185 26.596C899.193 25.1027 900.518 24.356 902.161 24.356C902.684 24.356 903.3 24.4493 904.009 24.636L903.589 26.988C902.786 26.8013 902.161 26.708 901.713 26.708C900.929 26.708 900.276 26.8667 899.753 27.184C899.249 27.4827 898.792 27.996 898.381 28.724V39H895.749V24.608H897.877ZM908.924 24.608L909.232 26.596C910.24 25.1027 911.565 24.356 913.208 24.356C913.731 24.356 914.347 24.4493 915.056 24.636L914.636 26.988C913.833 26.8013 913.208 26.708 912.76 26.708C911.976 26.708 911.323 26.8667 910.8 27.184C910.296 27.4827 909.839 27.996 909.428 28.724V39H906.796V24.608H908.924ZM917.871 19.176H920.447V21.612H917.871V19.176ZM917.871 24.608H920.447V39H917.871V24.608ZM934.074 24.608H936.622L931.582 39H928.25L923.154 24.608H925.87L930.014 36.648L934.074 24.608ZM938.132 35.108C938.132 33.5773 938.748 32.392 939.98 31.552C941.212 30.712 942.958 30.292 945.216 30.292H947.344V29.732C947.344 28.5373 947.092 27.688 946.588 27.184C946.103 26.68 945.263 26.428 944.068 26.428C943.303 26.428 942.622 26.5027 942.024 26.652C941.427 26.7827 940.662 27.0533 939.728 27.464L938.944 25.644C940.699 24.7853 942.426 24.356 944.124 24.356C946.159 24.356 947.643 24.7947 948.576 25.672C949.51 26.5307 949.976 27.9027 949.976 29.788V39H947.932C947.914 38.9253 947.876 38.748 947.82 38.468C947.764 38.1693 947.68 37.7867 947.568 37.32C946.224 38.664 944.656 39.336 942.864 39.336C941.427 39.336 940.279 38.9533 939.42 38.188C938.562 37.4227 938.132 36.396 938.132 35.108ZM940.764 35.052C940.764 35.7613 940.988 36.312 941.436 36.704C941.884 37.0773 942.528 37.264 943.368 37.264C944.115 37.264 944.843 37.096 945.552 36.76C946.262 36.4053 946.859 35.9293 947.344 35.332V32.252H945.384C943.854 32.252 942.696 32.4853 941.912 32.952C941.147 33.4187 940.764 34.1187 940.764 35.052ZM954.539 17.748H957.115V39H954.539V17.748Z" fill="#2D9CDB"/>
<path d="M192.855 574.284V582.656C190.97 583.72 188.637 584.252 185.855 584.252C182.981 584.252 180.769 583.375 179.219 581.62C177.689 579.865 176.923 577.345 176.923 574.06C176.923 570.775 177.689 568.273 179.219 566.556C180.769 564.82 183.009 563.952 185.939 563.952C187.47 563.952 188.795 564.195 189.915 564.68C191.035 565.147 191.987 565.865 192.771 566.836L190.951 568.348C189.719 566.911 188.049 566.192 185.939 566.192C183.942 566.192 182.411 566.864 181.347 568.208C180.302 569.552 179.779 571.503 179.779 574.06C179.779 576.673 180.321 578.652 181.403 579.996C182.505 581.34 184.119 582.012 186.247 582.012C187.629 582.012 188.935 581.788 190.167 581.34V574.284H192.855ZM196.253 576.776C196.253 574.424 196.841 572.604 198.017 571.316C199.193 570.009 200.854 569.356 203.001 569.356C205.11 569.356 206.632 569.991 207.565 571.26C208.517 572.511 208.993 574.321 208.993 576.692V577.14H198.941C198.978 578.764 199.361 580.005 200.089 580.864C200.817 581.723 201.862 582.152 203.225 582.152C203.972 582.152 204.69 582.068 205.381 581.9C206.072 581.713 206.837 581.433 207.677 581.06L208.433 582.852C207.481 583.337 206.576 583.692 205.717 583.916C204.858 584.121 203.981 584.224 203.085 584.224C200.92 584.224 199.24 583.571 198.045 582.264C196.85 580.957 196.253 579.128 196.253 576.776ZM203.001 571.428C201.9 571.428 201.013 571.745 200.341 572.38C199.688 573.015 199.258 573.948 199.053 575.18H206.221C206.09 573.892 205.764 572.949 205.241 572.352C204.718 571.736 203.972 571.428 203.001 571.428ZM219.859 569.356C221.389 569.356 222.556 569.795 223.359 570.672C224.18 571.549 224.591 572.819 224.591 574.48V584H221.959V574.676C221.959 573.537 221.735 572.716 221.287 572.212C220.857 571.689 220.157 571.428 219.187 571.428C218.309 571.428 217.507 571.633 216.779 572.044C216.051 572.436 215.453 572.987 214.987 573.696V584H212.355V569.608H214.511L214.819 571.624C216.107 570.112 217.787 569.356 219.859 569.356ZM241.102 562.748V583.972H238.974L238.61 582.208C237.546 583.552 236.128 584.224 234.354 584.224C232.357 584.224 230.798 583.608 229.678 582.376C228.577 581.125 228.026 579.343 228.026 577.028C228.026 574.62 228.68 572.744 229.986 571.4C231.312 570.037 233.122 569.356 235.418 569.356C236.408 569.356 237.425 569.487 238.47 569.748V562.748H241.102ZM234.522 582.152C235.493 582.152 236.324 581.891 237.014 581.368C237.724 580.827 238.209 580.08 238.47 579.128V571.848C237.518 571.568 236.51 571.428 235.446 571.428C233.972 571.428 232.814 571.923 231.974 572.912C231.134 573.883 230.714 575.255 230.714 577.028C230.714 578.671 231.041 579.94 231.694 580.836C232.366 581.713 233.309 582.152 234.522 582.152ZM244.624 576.776C244.624 574.424 245.212 572.604 246.388 571.316C247.564 570.009 249.225 569.356 251.372 569.356C253.481 569.356 255.003 569.991 255.936 571.26C256.888 572.511 257.364 574.321 257.364 576.692V577.14H247.312C247.349 578.764 247.732 580.005 248.46 580.864C249.188 581.723 250.233 582.152 251.596 582.152C252.343 582.152 253.061 582.068 253.752 581.9C254.443 581.713 255.208 581.433 256.048 581.06L256.804 582.852C255.852 583.337 254.947 583.692 254.088 583.916C253.229 584.121 252.352 584.224 251.456 584.224C249.291 584.224 247.611 583.571 246.416 582.264C245.221 580.957 244.624 579.128 244.624 576.776ZM251.372 571.428C250.271 571.428 249.384 571.745 248.712 572.38C248.059 573.015 247.629 573.948 247.424 575.18H254.592C254.461 573.892 254.135 572.949 253.612 572.352C253.089 571.736 252.343 571.428 251.372 571.428ZM262.938 569.608L263.246 571.596C264.254 570.103 265.579 569.356 267.222 569.356C267.744 569.356 268.36 569.449 269.07 569.636L268.65 571.988C267.847 571.801 267.222 571.708 266.774 571.708C265.99 571.708 265.336 571.867 264.814 572.184C264.31 572.483 263.852 572.996 263.442 573.724V584H260.81V569.608H262.938Z" fill="#2D9CDB" fill-opacity="0.75"/>
<path d="M52.0791 610.008H62.1831V611.952H54.3591V617.112H61.3191V619.08H54.3591V627H52.0791V610.008ZM63.5415 620.808C63.5415 618.792 64.0455 617.232 65.0535 616.128C66.0615 615.008 67.4855 614.448 69.3255 614.448C71.1335 614.448 72.4375 614.992 73.2375 616.08C74.0535 617.152 74.4615 618.704 74.4615 620.736V621.12H65.8455C65.8775 622.512 66.2055 623.576 66.8295 624.312C67.4535 625.048 68.3495 625.416 69.5175 625.416C70.1575 625.416 70.7735 625.344 71.3655 625.2C71.9575 625.04 72.6135 624.8 73.3335 624.48L73.9815 626.016C73.1655 626.432 72.3895 626.736 71.6535 626.928C70.9175 627.104 70.1655 627.192 69.3975 627.192C67.5415 627.192 66.1015 626.632 65.0775 625.512C64.0535 624.392 63.5415 622.824 63.5415 620.808ZM69.3255 616.224C68.3815 616.224 67.6215 616.496 67.0455 617.04C66.4855 617.584 66.1175 618.384 65.9415 619.44H72.0855C71.9735 618.336 71.6935 617.528 71.2455 617.016C70.7975 616.488 70.1575 616.224 69.3255 616.224ZM91.599 614.448C92.991 614.448 94.039 614.824 94.743 615.576C95.447 616.312 95.799 617.4 95.799 618.84V627H93.543V619.008C93.543 618.032 93.351 617.328 92.967 616.896C92.599 616.448 91.999 616.224 91.167 616.224C90.447 616.224 89.775 616.4 89.151 616.752C88.543 617.088 88.055 617.56 87.687 618.168C87.703 618.312 87.711 618.536 87.711 618.84V627H85.455V619.008C85.455 618.032 85.263 617.328 84.879 616.896C84.511 616.448 83.911 616.224 83.079 616.224C82.359 616.224 81.695 616.4 81.087 616.752C80.479 617.088 79.983 617.552 79.599 618.144V627H77.343V614.664H79.191L79.431 616.344C80.503 615.08 81.863 614.448 83.511 614.448C85.447 614.448 86.719 615.168 87.327 616.608C88.415 615.168 89.839 614.448 91.599 614.448ZM98.6966 623.664C98.6966 622.352 99.2246 621.336 100.281 620.616C101.337 619.896 102.833 619.536 104.769 619.536H106.593V619.056C106.593 618.032 106.377 617.304 105.945 616.872C105.529 616.44 104.809 616.224 103.785 616.224C103.129 616.224 102.545 616.288 102.033 616.416C101.521 616.528 100.865 616.76 100.065 617.112L99.3926 615.552C100.897 614.816 102.377 614.448 103.833 614.448C105.577 614.448 106.849 614.824 107.649 615.576C108.449 616.312 108.849 617.488 108.849 619.104V627H107.097C107.081 626.936 107.049 626.784 107.001 626.544C106.953 626.288 106.881 625.96 106.785 625.56C105.633 626.712 104.289 627.288 102.753 627.288C101.521 627.288 100.537 626.96 99.8006 626.304C99.0646 625.648 98.6966 624.768 98.6966 623.664ZM100.953 623.616C100.953 624.224 101.145 624.696 101.529 625.032C101.913 625.352 102.465 625.512 103.185 625.512C103.825 625.512 104.449 625.368 105.057 625.08C105.665 624.776 106.177 624.368 106.593 623.856V621.216H104.913C103.601 621.216 102.609 621.416 101.937 621.816C101.281 622.216 100.953 622.816 100.953 623.616ZM112.759 608.784H114.967V627H112.759V608.784ZM118.127 620.808C118.127 618.792 118.631 617.232 119.639 616.128C120.647 615.008 122.071 614.448 123.911 614.448C125.719 614.448 127.023 614.992 127.823 616.08C128.639 617.152 129.047 618.704 129.047 620.736V621.12H120.431C120.463 622.512 120.791 623.576 121.415 624.312C122.039 625.048 122.935 625.416 124.103 625.416C124.743 625.416 125.359 625.344 125.951 625.2C126.543 625.04 127.199 624.8 127.919 624.48L128.567 626.016C127.751 626.432 126.975 626.736 126.239 626.928C125.503 627.104 124.751 627.192 123.983 627.192C122.127 627.192 120.687 626.632 119.663 625.512C118.639 624.392 118.127 622.824 118.127 620.808ZM123.911 616.224C122.967 616.224 122.207 616.496 121.631 617.04C121.071 617.584 120.703 618.384 120.527 619.44H126.671C126.559 618.336 126.279 617.528 125.831 617.016C125.383 616.488 124.743 616.224 123.911 616.224Z" fill="#2D9CDB" fill-opacity="0.75"/>
<path d="M319.542 628H317.358L315.582 614.104L310.998 628H308.67L304.086 614.104L302.31 628H300.126L302.286 611.008H305.142L309.846 624.688L314.526 611.008H317.382L319.542 628ZM322.169 624.664C322.169 623.352 322.697 622.336 323.753 621.616C324.809 620.896 326.305 620.536 328.241 620.536H330.065V620.056C330.065 619.032 329.849 618.304 329.417 617.872C329.001 617.44 328.281 617.224 327.257 617.224C326.601 617.224 326.017 617.288 325.505 617.416C324.993 617.528 324.337 617.76 323.537 618.112L322.865 616.552C324.369 615.816 325.849 615.448 327.305 615.448C329.049 615.448 330.321 615.824 331.121 616.576C331.921 617.312 332.321 618.488 332.321 620.104V628H330.569C330.553 627.936 330.521 627.784 330.473 627.544C330.425 627.288 330.353 626.96 330.257 626.56C329.105 627.712 327.761 628.288 326.225 628.288C324.993 628.288 324.009 627.96 323.273 627.304C322.537 626.648 322.169 625.768 322.169 624.664ZM324.425 624.616C324.425 625.224 324.617 625.696 325.001 626.032C325.385 626.352 325.937 626.512 326.657 626.512C327.297 626.512 327.921 626.368 328.529 626.08C329.137 625.776 329.649 625.368 330.065 624.856V622.216H328.385C327.073 622.216 326.081 622.416 325.409 622.816C324.753 623.216 324.425 623.816 324.425 624.616ZM336.232 609.784H338.44V628H336.232V609.784ZM341.6 621.808C341.6 619.792 342.104 618.232 343.112 617.128C344.12 616.008 345.544 615.448 347.384 615.448C349.192 615.448 350.496 615.992 351.296 617.08C352.112 618.152 352.52 619.704 352.52 621.736V622.12H343.904C343.936 623.512 344.264 624.576 344.888 625.312C345.512 626.048 346.408 626.416 347.576 626.416C348.216 626.416 348.832 626.344 349.424 626.2C350.016 626.04 350.672 625.8 351.392 625.48L352.04 627.016C351.224 627.432 350.448 627.736 349.712 627.928C348.976 628.104 348.224 628.192 347.456 628.192C345.6 628.192 344.16 627.632 343.136 626.512C342.112 625.392 341.6 623.824 341.6 621.808ZM347.384 617.224C346.44 617.224 345.68 617.496 345.104 618.04C344.544 618.584 344.176 619.384 344 620.44H350.144C350.032 619.336 349.752 618.528 349.304 618.016C348.856 617.488 348.216 617.224 347.384 617.224Z" fill="#2D9CDB" fill-opacity="0.75"/>
<path d="M157.642 257.176H160.302V274.676H169.374V277H157.642V257.176ZM171.396 273.108C171.396 271.577 172.012 270.392 173.244 269.552C174.476 268.712 176.221 268.292 178.48 268.292H180.608V267.732C180.608 266.537 180.356 265.688 179.852 265.184C179.367 264.68 178.527 264.428 177.332 264.428C176.567 264.428 175.885 264.503 175.288 264.652C174.691 264.783 173.925 265.053 172.992 265.464L172.208 263.644C173.963 262.785 175.689 262.356 177.388 262.356C179.423 262.356 180.907 262.795 181.84 263.672C182.773 264.531 183.24 265.903 183.24 267.788V277H181.196C181.177 276.925 181.14 276.748 181.084 276.468C181.028 276.169 180.944 275.787 180.832 275.32C179.488 276.664 177.92 277.336 176.128 277.336C174.691 277.336 173.543 276.953 172.684 276.188C171.825 275.423 171.396 274.396 171.396 273.108ZM174.028 273.052C174.028 273.761 174.252 274.312 174.7 274.704C175.148 275.077 175.792 275.264 176.632 275.264C177.379 275.264 178.107 275.096 178.816 274.76C179.525 274.405 180.123 273.929 180.608 273.332V270.252H178.648C177.117 270.252 175.96 270.485 175.176 270.952C174.411 271.419 174.028 272.119 174.028 273.052ZM187.607 274.032C188.447 274.387 189.165 274.648 189.763 274.816C190.379 274.984 191.013 275.068 191.667 275.068C192.507 275.068 193.16 274.891 193.627 274.536C194.112 274.181 194.355 273.659 194.355 272.968C194.355 272.539 194.224 272.193 193.963 271.932C193.72 271.652 193.44 271.447 193.123 271.316C192.824 271.185 192.255 270.98 191.415 270.7C191.284 270.663 190.789 270.495 189.931 270.196C189.072 269.897 188.409 269.431 187.943 268.796C187.495 268.161 187.271 267.377 187.271 266.444C187.271 265.287 187.719 264.316 188.615 263.532C189.511 262.748 190.827 262.356 192.563 262.356C193.291 262.356 193.972 262.44 194.607 262.608C195.26 262.776 195.941 263 196.651 263.28L195.951 265.352C195.335 265.109 194.756 264.913 194.215 264.764C193.692 264.615 193.141 264.54 192.563 264.54C191.685 264.54 191.023 264.717 190.575 265.072C190.127 265.408 189.903 265.856 189.903 266.416C189.903 266.939 190.08 267.331 190.435 267.592C190.789 267.835 191.359 268.096 192.143 268.376C192.348 268.432 192.535 268.497 192.703 268.572L193.375 268.824C194.159 269.085 194.784 269.347 195.251 269.608C195.736 269.869 196.147 270.271 196.483 270.812C196.819 271.335 196.987 272.035 196.987 272.912C196.987 274.293 196.492 275.367 195.503 276.132C194.532 276.879 193.263 277.252 191.695 277.252C190.78 277.252 189.931 277.159 189.147 276.972C188.363 276.767 187.579 276.496 186.795 276.16L187.607 274.032ZM199.277 264.624V262.608H202.021L202.469 258.408H204.429V262.608H208.825V264.624H204.429V272.576C204.429 274.237 205.129 275.068 206.529 275.068C207.089 275.068 207.78 274.937 208.601 274.676L209.049 276.524C208.022 276.953 207.024 277.168 206.053 277.168C204.802 277.168 203.776 276.795 202.973 276.048C202.189 275.301 201.797 274.191 201.797 272.716V264.624H199.277ZM226.558 262.356C228.088 262.356 229.255 262.795 230.058 263.672C230.879 264.549 231.29 265.819 231.29 267.48V277H228.658V267.676C228.658 266.537 228.434 265.716 227.986 265.212C227.556 264.689 226.856 264.428 225.886 264.428C225.008 264.428 224.206 264.633 223.478 265.044C222.75 265.436 222.152 265.987 221.686 266.696V277H219.054V262.608H221.21L221.518 264.624C222.806 263.112 224.486 262.356 226.558 262.356ZM234.67 273.108C234.67 271.577 235.286 270.392 236.518 269.552C237.75 268.712 239.495 268.292 241.754 268.292H243.882V267.732C243.882 266.537 243.63 265.688 243.126 265.184C242.64 264.68 241.8 264.428 240.606 264.428C239.84 264.428 239.159 264.503 238.562 264.652C237.964 264.783 237.199 265.053 236.266 265.464L235.482 263.644C237.236 262.785 238.963 262.356 240.662 262.356C242.696 262.356 244.18 262.795 245.114 263.672C246.047 264.531 246.514 265.903 246.514 267.788V277H244.47C244.451 276.925 244.414 276.748 244.358 276.468C244.302 276.169 244.218 275.787 244.106 275.32C242.762 276.664 241.194 277.336 239.402 277.336C237.964 277.336 236.816 276.953 235.958 276.188C235.099 275.423 234.67 274.396 234.67 273.108ZM237.302 273.052C237.302 273.761 237.526 274.312 237.974 274.704C238.422 275.077 239.066 275.264 239.906 275.264C240.652 275.264 241.38 275.096 242.09 274.76C242.799 274.405 243.396 273.929 243.882 273.332V270.252H241.922C240.391 270.252 239.234 270.485 238.45 270.952C237.684 271.419 237.302 272.119 237.302 273.052ZM267.596 262.356C269.22 262.356 270.443 262.795 271.264 263.672C272.085 264.531 272.496 265.8 272.496 267.48V277H269.864V267.676C269.864 266.537 269.64 265.716 269.192 265.212C268.763 264.689 268.063 264.428 267.092 264.428C266.252 264.428 265.468 264.633 264.74 265.044C264.031 265.436 263.461 265.987 263.032 266.696C263.051 266.864 263.06 267.125 263.06 267.48V277H260.428V267.676C260.428 266.537 260.204 265.716 259.756 265.212C259.327 264.689 258.627 264.428 257.656 264.428C256.816 264.428 256.041 264.633 255.332 265.044C254.623 265.436 254.044 265.977 253.596 266.668V277H250.964V262.608H253.12L253.4 264.568C254.651 263.093 256.237 262.356 258.16 262.356C260.419 262.356 261.903 263.196 262.612 264.876C263.881 263.196 265.543 262.356 267.596 262.356ZM275.933 269.776C275.933 267.424 276.521 265.604 277.697 264.316C278.873 263.009 280.534 262.356 282.681 262.356C284.79 262.356 286.311 262.991 287.245 264.26C288.197 265.511 288.673 267.321 288.673 269.692V270.14H278.621C278.658 271.764 279.041 273.005 279.769 273.864C280.497 274.723 281.542 275.152 282.905 275.152C283.651 275.152 284.37 275.068 285.061 274.9C285.751 274.713 286.517 274.433 287.357 274.06L288.113 275.852C287.161 276.337 286.255 276.692 285.397 276.916C284.538 277.121 283.661 277.224 282.765 277.224C280.599 277.224 278.919 276.571 277.725 275.264C276.53 273.957 275.933 272.128 275.933 269.776ZM282.681 264.428C281.579 264.428 280.693 264.745 280.021 265.38C279.367 266.015 278.938 266.948 278.733 268.18H285.901C285.77 266.892 285.443 265.949 284.921 265.352C284.398 264.736 283.651 264.428 282.681 264.428Z" fill="#2D9CDB" fill-opacity="0.75"/>
<path d="M179.674 419.584C180.943 419.939 181.895 420.508 182.53 421.292C183.183 422.057 183.51 423.009 183.51 424.148C183.51 425.977 182.922 427.415 181.746 428.46C180.589 429.487 178.909 430 176.706 430H170.042V410.176H175.894C178.153 410.176 179.851 410.633 180.99 411.548C182.129 412.463 182.698 413.76 182.698 415.44C182.698 417.437 181.69 418.819 179.674 419.584ZM172.702 412.416V418.632H175.894C177.201 418.632 178.19 418.371 178.862 417.848C179.553 417.307 179.898 416.504 179.898 415.44C179.898 413.424 178.563 412.416 175.894 412.416H172.702ZM176.706 427.76C177.994 427.76 178.983 427.452 179.674 426.836C180.365 426.22 180.71 425.324 180.71 424.148C180.71 423.065 180.327 422.253 179.562 421.712C178.815 421.152 177.723 420.872 176.286 420.872H172.702V427.76H176.706ZM187.215 410.176H189.791V412.612H187.215V410.176ZM187.215 415.608H189.791V430H187.215V415.608ZM196.697 415.608L197.005 417.596C198.013 416.103 199.339 415.356 200.981 415.356C201.504 415.356 202.12 415.449 202.829 415.636L202.409 417.988C201.607 417.801 200.981 417.708 200.533 417.708C199.749 417.708 199.096 417.867 198.573 418.184C198.069 418.483 197.612 418.996 197.201 419.724V430H194.569V415.608H196.697ZM204.048 417.624V415.608H206.792L207.24 411.408H209.2V415.608H213.596V417.624H209.2V425.576C209.2 427.237 209.9 428.068 211.3 428.068C211.86 428.068 212.551 427.937 213.372 427.676L213.82 429.524C212.794 429.953 211.795 430.168 210.824 430.168C209.574 430.168 208.547 429.795 207.744 429.048C206.96 428.301 206.568 427.191 206.568 425.716V417.624H204.048ZM224.413 415.356C225.944 415.356 227.111 415.795 227.913 416.672C228.735 417.549 229.145 418.819 229.145 420.48V430H226.513V420.676C226.513 419.537 226.289 418.716 225.841 418.212C225.412 417.689 224.712 417.428 223.741 417.428C222.864 417.428 222.061 417.633 221.333 418.044C220.605 418.436 220.008 418.987 219.541 419.696V430H216.909V408.748H219.541V417.428C220.811 416.047 222.435 415.356 224.413 415.356ZM245.655 408.748V429.972H243.527L243.163 428.208C242.099 429.552 240.68 430.224 238.907 430.224C236.91 430.224 235.351 429.608 234.231 428.376C233.13 427.125 232.579 425.343 232.579 423.028C232.579 420.62 233.232 418.744 234.539 417.4C235.864 416.037 237.675 415.356 239.971 415.356C240.96 415.356 241.978 415.487 243.023 415.748V408.748H245.655ZM239.075 428.152C240.046 428.152 240.876 427.891 241.567 427.368C242.276 426.827 242.762 426.08 243.023 425.128V417.848C242.071 417.568 241.063 417.428 239.999 417.428C238.524 417.428 237.367 417.923 236.527 418.912C235.687 419.883 235.267 421.255 235.267 423.028C235.267 424.671 235.594 425.94 236.247 426.836C236.919 427.713 237.862 428.152 239.075 428.152ZM249.121 426.108C249.121 424.577 249.737 423.392 250.969 422.552C252.201 421.712 253.946 421.292 256.205 421.292H258.333V420.732C258.333 419.537 258.081 418.688 257.577 418.184C257.091 417.68 256.251 417.428 255.057 417.428C254.291 417.428 253.61 417.503 253.013 417.652C252.415 417.783 251.65 418.053 250.717 418.464L249.933 416.644C251.687 415.785 253.414 415.356 255.113 415.356C257.147 415.356 258.631 415.795 259.565 416.672C260.498 417.531 260.965 418.903 260.965 420.788V430H258.921C258.902 429.925 258.865 429.748 258.809 429.468C258.753 429.169 258.669 428.787 258.557 428.32C257.213 429.664 255.645 430.336 253.853 430.336C252.415 430.336 251.267 429.953 250.409 429.188C249.55 428.423 249.121 427.396 249.121 426.108ZM251.753 426.052C251.753 426.761 251.977 427.312 252.425 427.704C252.873 428.077 253.517 428.264 254.357 428.264C255.103 428.264 255.831 428.096 256.541 427.76C257.25 427.405 257.847 426.929 258.333 426.332V423.252H256.373C254.842 423.252 253.685 423.485 252.901 423.952C252.135 424.419 251.753 425.119 251.753 426.052ZM274.515 415.608H277.063L269.643 436.888H267.263L269.615 430H268.523L263.427 415.608H266.143L270.371 427.788L274.515 415.608Z" fill="#2D9CDB" fill-opacity="0.75"/>
<g filter="url(#filter2_i)">
<rect x="50" y="154" width="352" height="42" fill="#56CCF2" fill-opacity="0.56"/>
</g>
<g filter="url(#filter3_i)">
<rect x="50" y="456" width="352" height="42" fill="#56CCF2" fill-opacity="0.56"/>
</g>
<g filter="url(#filter4_i)">
<rect x="50" y="303" width="352" height="42" fill="#56CCF2" fill-opacity="0.56"/>
</g>
<defs>
<filter id="filter0_d" x="0" y="0" width="464" height="715" filterUnits="userSpaceOnUse" color-interpolation-filters="sRGB">
<feFlood flood-opacity="0" result="BackgroundImageFix"/>
<feColorMatrix in="SourceAlpha" type="matrix" values="0 0 0 0 0 0 0 0 0 0 0 0 0 0 0 0 0 0 127 0"/>
<feOffset dy="4"/>
<feGaussianBlur stdDeviation="2"/>
<feColorMatrix type="matrix" values="0 0 0 0 0 0 0 0 0 0 0 0 0 0 0 0 0 0 0.25 0"/>
<feBlend mode="normal" in2="BackgroundImageFix" result="effect1_dropShadow"/>
<feBlend mode="normal" in="SourceGraphic" in2="effect1_dropShadow" result="shape"/>
</filter>
<filter id="filter1_d" x="736" y="0" width="351" height="315" filterUnits="userSpaceOnUse" color-interpolation-filters="sRGB">
<feFlood flood-opacity="0" result="BackgroundImageFix"/>
<feColorMatrix in="SourceAlpha" type="matrix" values="0 0 0 0 0 0 0 0 0 0 0 0 0 0 0 0 0 0 127 0"/>
<feOffset dy="4"/>
<feGaussianBlur stdDeviation="2"/>
<feColorMatrix type="matrix" values="0 0 0 0 0 0 0 0 0 0 0 0 0 0 0 0 0 0 0.25 0"/>
<feBlend mode="normal" in2="BackgroundImageFix" result="effect1_dropShadow"/>
<feBlend mode="normal" in="SourceGraphic" in2="effect1_dropShadow" result="shape"/>
</filter>
<filter id="filter2_i" x="50" y="154" width="352" height="46" filterUnits="userSpaceOnUse" color-interpolation-filters="sRGB">
<feFlood flood-opacity="0" result="BackgroundImageFix"/>
<feBlend mode="normal" in="SourceGraphic" in2="BackgroundImageFix" result="shape"/>
<feColorMatrix in="SourceAlpha" type="matrix" values="0 0 0 0 0 0 0 0 0 0 0 0 0 0 0 0 0 0 127 0" result="hardAlpha"/>
<feOffset dy="4"/>
<feGaussianBlur stdDeviation="2"/>
<feComposite in2="hardAlpha" operator="arithmetic" k2="-1" k3="1"/>
<feColorMatrix type="matrix" values="0 0 0 0 0 0 0 0 0 0 0 0 0 0 0 0 0 0 0.25 0"/>
<feBlend mode="normal" in2="shape" result="effect1_innerShadow"/>
</filter>
<filter id="filter3_i" x="50" y="456" width="352" height="46" filterUnits="userSpaceOnUse" color-interpolation-filters="sRGB">
<feFlood flood-opacity="0" result="BackgroundImageFix"/>
<feBlend mode="normal" in="SourceGraphic" in2="BackgroundImageFix" result="shape"/>
<feColorMatrix in="SourceAlpha" type="matrix" values="0 0 0 0 0 0 0 0 0 0 0 0 0 0 0 0 0 0 127 0" result="hardAlpha"/>
<feOffset dy="4"/>
<feGaussianBlur stdDeviation="2"/>
<feComposite in2="hardAlpha" operator="arithmetic" k2="-1" k3="1"/>
<feColorMatrix type="matrix" values="0 0 0 0 0 0 0 0 0 0 0 0 0 0 0 0 0 0 0.25 0"/>
<feBlend mode="normal" in2="shape" result="effect1_innerShadow"/>
</filter>
<filter id="filter4_i" x="50" y="303" width="352" height="46" filterUnits="userSpaceOnUse" color-interpolation-filters="sRGB">
<feFlood flood-opacity="0" result="BackgroundImageFix"/>
<feBlend mode="normal" in="SourceGraphic" in2="BackgroundImageFix" result="shape"/>
<feColorMatrix in="SourceAlpha" type="matrix" values="0 0 0 0 0 0 0 0 0 0 0 0 0 0 0 0 0 0 127 0" result="hardAlpha"/>
<feOffset dy="4"/>
<feGaussianBlur stdDeviation="2"/>
<feComposite in2="hardAlpha" operator="arithmetic" k2="-1" k3="1"/>
<feColorMatrix type="matrix" values="0 0 0 0 0 0 0 0 0 0 0 0 0 0 0 0 0 0 0.25 0"/>
<feBlend mode="normal" in2="shape" result="effect1_innerShadow"/>
</filter>
</defs>
</svg>
