<svg width="1091" height="771" viewBox="0 0 1091 771" fill="none" xmlns="http://www.w3.org/2000/svg">
<g filter="url(#filter0_d)">
<rect x="4" width="448" height="763" fill="#F2F2F2"/>
</g>
<g filter="url(#filter1_d)">
<rect x="744" y="8" width="343" height="336" fill="#F2F2F2"/>
</g>
<path d="M62.3748 628.146L56.9928 618.716H59.4078L63.4788 626.007L67.5728 618.716H69.9648L64.5598 628.146V635H62.3748V628.146ZM69.9765 629.066C69.9765 627.134 70.4595 625.639 71.4255 624.581C72.3915 623.508 73.7561 622.971 75.5195 622.971C77.2521 622.971 78.5018 623.492 79.2685 624.535C80.0505 625.562 80.4415 627.05 80.4415 628.997V629.365H72.1845C72.2151 630.699 72.5295 631.719 73.1275 632.424C73.7255 633.129 74.5841 633.482 75.7035 633.482C76.3168 633.482 76.9071 633.413 77.4745 633.275C78.0418 633.122 78.6705 632.892 79.3605 632.585L79.9815 634.057C79.1995 634.456 78.4558 634.747 77.7505 634.931C77.0451 635.1 76.3245 635.184 75.5885 635.184C73.8098 635.184 72.4298 634.647 71.4485 633.574C70.4671 632.501 69.9765 630.998 69.9765 629.066ZM75.5195 624.673C74.6148 624.673 73.8865 624.934 73.3345 625.455C72.7978 625.976 72.4451 626.743 72.2765 627.755H78.1645C78.0571 626.697 77.7888 625.923 77.3595 625.432C76.9301 624.926 76.3168 624.673 75.5195 624.673ZM83.1339 632.562C83.8239 632.853 84.4142 633.068 84.9049 633.206C85.4109 633.344 85.9322 633.413 86.4689 633.413C87.1589 633.413 87.6956 633.267 88.0789 632.976C88.4776 632.685 88.6769 632.255 88.6769 631.688C88.6769 631.335 88.5696 631.052 88.3549 630.837C88.1556 630.607 87.9256 630.438 87.6649 630.331C87.4196 630.224 86.9519 630.055 86.2619 629.825C86.1546 629.794 85.7482 629.656 85.0429 629.411C84.3376 629.166 83.7932 628.782 83.4099 628.261C83.0419 627.74 82.8579 627.096 82.8579 626.329C82.8579 625.378 83.2259 624.581 83.9619 623.937C84.6979 623.293 85.7789 622.971 87.2049 622.971C87.8029 622.971 88.3626 623.04 88.8839 623.178C89.4206 623.316 89.9802 623.5 90.5629 623.73L89.9879 625.432C89.4819 625.233 89.0066 625.072 88.5619 624.949C88.1326 624.826 87.6802 624.765 87.2049 624.765C86.4842 624.765 85.9399 624.911 85.5719 625.202C85.2039 625.478 85.0199 625.846 85.0199 626.306C85.0199 626.735 85.1656 627.057 85.4569 627.272C85.7482 627.471 86.2159 627.686 86.8599 627.916C87.0286 627.962 87.1819 628.016 87.3199 628.077L87.8719 628.284C88.5159 628.499 89.0296 628.713 89.4129 628.928C89.8116 629.143 90.1489 629.472 90.4249 629.917C90.7009 630.346 90.8389 630.921 90.8389 631.642C90.8389 632.777 90.4326 633.658 89.6199 634.287C88.8226 634.9 87.7799 635.207 86.4919 635.207C85.7406 635.207 85.0429 635.13 84.3989 634.977C83.7549 634.808 83.1109 634.586 82.4669 634.31L83.1339 632.562Z" fill="#5EB1E1"/>
<path d="M55.3748 482.146L49.9928 472.716H52.4078L56.4788 480.007L60.5728 472.716H62.9648L57.5598 482.146V489H55.3748V482.146ZM62.9765 483.066C62.9765 481.134 63.4595 479.639 64.4255 478.581C65.3915 477.508 66.7561 476.971 68.5195 476.971C70.2521 476.971 71.5018 477.492 72.2685 478.535C73.0505 479.562 73.4415 481.05 73.4415 482.997V483.365H65.1845C65.2151 484.699 65.5295 485.719 66.1275 486.424C66.7255 487.129 67.5841 487.482 68.7035 487.482C69.3168 487.482 69.9071 487.413 70.4745 487.275C71.0418 487.122 71.6705 486.892 72.3605 486.585L72.9815 488.057C72.1995 488.456 71.4558 488.747 70.7505 488.931C70.0451 489.1 69.3245 489.184 68.5885 489.184C66.8098 489.184 65.4298 488.647 64.4485 487.574C63.4671 486.501 62.9765 484.998 62.9765 483.066ZM68.5195 478.673C67.6148 478.673 66.8865 478.934 66.3345 479.455C65.7978 479.976 65.4451 480.743 65.2765 481.755H71.1645C71.0571 480.697 70.7888 479.923 70.3595 479.432C69.9301 478.926 69.3168 478.673 68.5195 478.673ZM76.1339 486.562C76.8239 486.853 77.4142 487.068 77.9049 487.206C78.4109 487.344 78.9322 487.413 79.4689 487.413C80.1589 487.413 80.6956 487.267 81.0789 486.976C81.4776 486.685 81.6769 486.255 81.6769 485.688C81.6769 485.335 81.5696 485.052 81.3549 484.837C81.1556 484.607 80.9256 484.438 80.6649 484.331C80.4196 484.224 79.9519 484.055 79.2619 483.825C79.1546 483.794 78.7482 483.656 78.0429 483.411C77.3376 483.166 76.7932 482.782 76.4099 482.261C76.0419 481.74 75.8579 481.096 75.8579 480.329C75.8579 479.378 76.2259 478.581 76.9619 477.937C77.6979 477.293 78.7789 476.971 80.2049 476.971C80.8029 476.971 81.3626 477.04 81.8839 477.178C82.4206 477.316 82.9802 477.5 83.5629 477.73L82.9879 479.432C82.4819 479.233 82.0066 479.072 81.5619 478.949C81.1326 478.826 80.6802 478.765 80.2049 478.765C79.4842 478.765 78.9399 478.911 78.5719 479.202C78.2039 479.478 78.0199 479.846 78.0199 480.306C78.0199 480.735 78.1656 481.057 78.4569 481.272C78.7482 481.471 79.2159 481.686 79.8599 481.916C80.0286 481.962 80.1819 482.016 80.3199 482.077L80.8719 482.284C81.5159 482.499 82.0296 482.713 82.4129 482.928C82.8116 483.143 83.1489 483.472 83.4249 483.917C83.7009 484.346 83.8389 484.921 83.8389 485.642C83.8389 486.777 83.4326 487.658 82.6199 488.287C81.8226 488.9 80.7799 489.207 79.4919 489.207C78.7406 489.207 78.0429 489.13 77.3989 488.977C76.7549 488.808 76.1109 488.586 75.4669 488.31L76.1339 486.562Z" fill="#5EB1E1"/>
<path d="M29.9701 326.421C31.0281 326.728 31.8101 327.226 32.3161 327.916C32.8374 328.591 33.0981 329.465 33.0981 330.538C33.0981 331.458 32.8681 332.278 32.4081 332.999C31.9481 333.704 31.2964 334.256 30.4531 334.655C29.6097 335.038 28.6361 335.23 27.5321 335.23C26.3667 335.23 25.3471 335.031 24.4731 334.632C23.6144 334.218 22.8401 333.597 22.1501 332.769L23.4611 331.435C24.1357 332.171 24.7567 332.685 25.3241 332.976C25.8914 333.252 26.6274 333.39 27.5321 333.39C28.5134 333.39 29.3031 333.129 29.9011 332.608C30.4991 332.071 30.7981 331.374 30.7981 330.515C30.7981 329.411 30.4837 328.614 29.8551 328.123C29.2417 327.617 28.2681 327.364 26.9341 327.364H25.7611V325.708H26.7961C27.9767 325.693 28.8814 325.432 29.5101 324.926C30.1387 324.405 30.4531 323.661 30.4531 322.695C30.4531 321.99 30.1924 321.43 29.6711 321.016C29.1497 320.587 28.4444 320.372 27.5551 320.372C26.6504 320.372 25.9144 320.533 25.3471 320.855C24.7951 321.177 24.3044 321.744 23.8751 322.557L22.2881 321.706C22.6714 320.801 23.3231 320.05 24.2431 319.452C25.1631 318.839 26.2671 318.532 27.5551 318.532C29.1497 318.532 30.4147 318.908 31.3501 319.659C32.2854 320.41 32.7531 321.422 32.7531 322.695C32.7531 323.569 32.5154 324.32 32.0401 324.949C31.5647 325.578 30.8747 326.068 29.9701 326.421ZM60.3105 335H58.2175L56.5155 321.683L52.1225 335H49.8915L45.4985 321.683L43.7965 335H41.7035L43.7735 318.716H46.5105L51.0185 331.826L55.5035 318.716H58.2405L60.3105 335Z" fill="#5EB1E1"/>
<path d="M170.692 327.834C171.643 327.834 172.494 328.041 173.245 328.455C173.997 328.869 174.579 329.452 174.993 330.203C175.407 330.954 175.614 331.805 175.614 332.756C175.614 333.814 175.377 334.757 174.901 335.585C174.441 336.398 173.797 337.034 172.969 337.494C172.141 337.954 171.198 338.184 170.14 338.184C168.208 338.184 166.752 337.532 165.77 336.229C164.804 334.91 164.321 332.948 164.321 330.341C164.321 327.458 164.919 325.273 166.115 323.786C167.327 322.283 169.09 321.532 171.405 321.532C172.08 321.532 172.701 321.609 173.268 321.762C173.851 321.915 174.418 322.153 174.97 322.475L174.073 324.016C173.276 323.587 172.394 323.372 171.428 323.372C169.895 323.372 168.737 323.87 167.955 324.867C167.173 325.848 166.736 327.359 166.644 329.398C167.196 328.892 167.817 328.509 168.507 328.248C169.213 327.972 169.941 327.834 170.692 327.834ZM170.163 336.298C170.746 336.298 171.275 336.145 171.75 335.838C172.241 335.531 172.624 335.11 172.9 334.573C173.176 334.036 173.314 333.438 173.314 332.779C173.314 331.813 173.046 331.054 172.509 330.502C171.973 329.95 171.229 329.674 170.278 329.674C169.619 329.674 168.96 329.812 168.3 330.088C167.656 330.349 167.104 330.709 166.644 331.169C166.706 332.963 167.02 334.266 167.587 335.079C168.155 335.892 169.013 336.298 170.163 336.298ZM202.737 338H200.644L198.942 324.683L194.549 338H192.318L187.925 324.683L186.223 338H184.13L186.2 321.716H188.937L193.445 334.826L197.93 321.716H200.667L202.737 338Z" fill="#5EB1E1"/>
<path d="M312.496 320.532C314.428 320.532 315.877 321.191 316.843 322.51C317.825 323.813 318.315 325.768 318.315 328.375C318.315 331.258 317.71 333.45 316.498 334.953C315.302 336.44 313.547 337.184 311.231 337.184C310.557 337.184 309.928 337.107 309.345 336.954C308.778 336.801 308.218 336.563 307.666 336.241L308.563 334.7C309.361 335.129 310.242 335.344 311.208 335.344C312.742 335.344 313.899 334.853 314.681 333.872C315.463 332.875 315.9 331.357 315.992 329.318C315.44 329.824 314.812 330.215 314.106 330.491C313.416 330.752 312.696 330.882 311.944 330.882C310.994 330.882 310.143 330.675 309.391 330.261C308.64 329.847 308.057 329.264 307.643 328.513C307.229 327.762 307.022 326.911 307.022 325.96C307.022 324.902 307.252 323.967 307.712 323.154C308.188 322.326 308.839 321.682 309.667 321.222C310.495 320.762 311.438 320.532 312.496 320.532ZM309.322 325.937C309.322 326.903 309.591 327.662 310.127 328.214C310.664 328.766 311.408 329.042 312.358 329.042C313.018 329.042 313.669 328.912 314.313 328.651C314.973 328.375 315.532 328.007 315.992 327.547C315.931 325.753 315.617 324.45 315.049 323.637C314.482 322.824 313.623 322.418 312.473 322.418C311.891 322.418 311.354 322.571 310.863 322.878C310.388 323.185 310.012 323.606 309.736 324.143C309.46 324.68 309.322 325.278 309.322 325.937ZM345.737 337H343.644L341.942 323.683L337.549 337H335.318L330.925 323.683L329.223 337H327.13L329.2 320.716H331.937L336.445 333.826L340.93 320.716H343.667L345.737 337Z" fill="#5EB1E1"/>
<path d="M296.228 469.716L301.564 478.341C301.917 478.908 302.377 479.706 302.944 480.733C303.511 481.76 303.81 482.305 303.841 482.366V469.716H306.003V486H303.772L298.045 476.57C297.6 475.834 297.14 475.044 296.665 474.201C296.205 473.358 295.906 472.806 295.768 472.545V486H293.652V469.716H296.228ZM308.973 480.066C308.973 478.149 309.456 476.654 310.422 475.581C311.403 474.508 312.791 473.971 314.585 473.971C316.379 473.971 317.759 474.508 318.725 475.581C319.706 476.654 320.197 478.149 320.197 480.066C320.197 481.983 319.706 483.485 318.725 484.574C317.759 485.647 316.379 486.184 314.585 486.184C312.791 486.184 311.403 485.647 310.422 484.574C309.456 483.485 308.973 481.983 308.973 480.066ZM311.181 480.066C311.181 481.507 311.472 482.604 312.055 483.355C312.653 484.106 313.496 484.482 314.585 484.482C315.674 484.482 316.509 484.106 317.092 483.355C317.69 482.604 317.989 481.507 317.989 480.066C317.989 478.625 317.69 477.536 317.092 476.8C316.509 476.049 315.674 475.673 314.585 475.673C313.496 475.673 312.653 476.049 312.055 476.8C311.472 477.536 311.181 478.625 311.181 480.066Z" fill="#5EB1E1"/>
<path d="M296.228 619.716L301.564 628.341C301.917 628.908 302.377 629.706 302.944 630.733C303.511 631.76 303.81 632.305 303.841 632.366V619.716H306.003V636H303.772L298.045 626.57C297.6 625.834 297.14 625.044 296.665 624.201C296.205 623.358 295.906 622.806 295.768 622.545V636H293.652V619.716H296.228ZM308.973 630.066C308.973 628.149 309.456 626.654 310.422 625.581C311.403 624.508 312.791 623.971 314.585 623.971C316.379 623.971 317.759 624.508 318.725 625.581C319.706 626.654 320.197 628.149 320.197 630.066C320.197 631.983 319.706 633.485 318.725 634.574C317.759 635.647 316.379 636.184 314.585 636.184C312.791 636.184 311.403 635.647 310.422 634.574C309.456 633.485 308.973 631.983 308.973 630.066ZM311.181 630.066C311.181 631.507 311.472 632.604 312.055 633.355C312.653 634.106 313.496 634.482 314.585 634.482C315.674 634.482 316.509 634.106 317.092 633.355C317.69 632.604 317.989 631.507 317.989 630.066C317.989 628.625 317.69 627.536 317.092 626.8C316.509 626.049 315.674 625.673 314.585 625.673C313.496 625.673 312.653 626.049 312.055 626.8C311.472 627.536 311.181 628.625 311.181 630.066Z" fill="#5EB1E1"/>
<path d="M143.064 405.176H145.752V413.604H155.888V405.176H158.576V425H155.888V415.844H145.752V425H143.064V405.176ZM172.341 410.608H174.889L167.469 431.888H165.089L167.441 425H166.349L161.253 410.608H163.969L168.197 422.788L172.341 410.608ZM184.152 410.356C186.149 410.356 187.699 410.981 188.8 412.232C189.92 413.464 190.48 415.237 190.48 417.552C190.48 419.96 189.817 421.845 188.492 423.208C187.185 424.552 185.384 425.224 183.088 425.224C182.005 425.224 181.007 425.093 180.092 424.832V431.86H177.46V410.608H179.588L179.924 412.344C180.428 411.691 181.035 411.196 181.744 410.86C182.472 410.524 183.275 410.356 184.152 410.356ZM183.06 423.152C184.535 423.152 185.692 422.667 186.532 421.696C187.372 420.707 187.792 419.325 187.792 417.552C187.792 415.909 187.456 414.649 186.784 413.772C186.131 412.876 185.197 412.428 183.984 412.428C183.032 412.428 182.211 412.68 181.52 413.184C180.848 413.688 180.372 414.388 180.092 415.284V422.732C181.044 423.012 182.033 423.152 183.06 423.152ZM193.022 417.776C193.022 415.424 193.61 413.604 194.786 412.316C195.962 411.009 197.624 410.356 199.77 410.356C201.88 410.356 203.401 410.991 204.334 412.26C205.286 413.511 205.762 415.321 205.762 417.692V418.14H195.71C195.748 419.764 196.13 421.005 196.858 421.864C197.586 422.723 198.632 423.152 199.994 423.152C200.741 423.152 201.46 423.068 202.15 422.9C202.841 422.713 203.606 422.433 204.446 422.06L205.202 423.852C204.25 424.337 203.345 424.692 202.486 424.916C201.628 425.121 200.75 425.224 199.854 425.224C197.689 425.224 196.009 424.571 194.814 423.264C193.62 421.957 193.022 420.128 193.022 417.776ZM199.77 412.428C198.669 412.428 197.782 412.745 197.11 413.38C196.457 414.015 196.028 414.948 195.822 416.18H202.99C202.86 414.892 202.533 413.949 202.01 413.352C201.488 412.736 200.741 412.428 199.77 412.428ZM211.336 410.608L211.644 412.596C212.652 411.103 213.977 410.356 215.62 410.356C216.143 410.356 216.759 410.449 217.468 410.636L217.048 412.988C216.245 412.801 215.62 412.708 215.172 412.708C214.388 412.708 213.735 412.867 213.212 413.184C212.708 413.483 212.251 413.996 211.84 414.724V425H209.208V410.608H211.336ZM218.687 412.624V410.608H221.431L221.879 406.408H223.839V410.608H228.235V412.624H223.839V420.576C223.839 422.237 224.539 423.068 225.939 423.068C226.499 423.068 227.19 422.937 228.011 422.676L228.459 424.524C227.432 424.953 226.434 425.168 225.463 425.168C224.212 425.168 223.186 424.795 222.383 424.048C221.599 423.301 221.207 422.191 221.207 420.716V412.624H218.687ZM230.456 417.776C230.456 415.424 231.044 413.604 232.22 412.316C233.396 411.009 235.057 410.356 237.204 410.356C239.313 410.356 240.835 410.991 241.768 412.26C242.72 413.511 243.196 415.321 243.196 417.692V418.14H233.144C233.181 419.764 233.564 421.005 234.292 421.864C235.02 422.723 236.065 423.152 237.428 423.152C238.175 423.152 238.893 423.068 239.584 422.9C240.275 422.713 241.04 422.433 241.88 422.06L242.636 423.852C241.684 424.337 240.779 424.692 239.92 424.916C239.061 425.121 238.184 425.224 237.288 425.224C235.123 425.224 233.443 424.571 232.248 423.264C231.053 421.957 230.456 420.128 230.456 417.776ZM237.204 412.428C236.103 412.428 235.216 412.745 234.544 413.38C233.891 414.015 233.461 414.948 233.256 416.18H240.424C240.293 414.892 239.967 413.949 239.444 413.352C238.921 412.736 238.175 412.428 237.204 412.428ZM254.062 410.356C255.592 410.356 256.759 410.795 257.562 411.672C258.383 412.549 258.794 413.819 258.794 415.48V425H256.162V415.676C256.162 414.537 255.938 413.716 255.49 413.212C255.06 412.689 254.36 412.428 253.39 412.428C252.512 412.428 251.71 412.633 250.982 413.044C250.254 413.436 249.656 413.987 249.19 414.696V425H246.558V410.608H248.714L249.022 412.624C250.31 411.112 251.99 410.356 254.062 410.356ZM263.153 422.032C263.993 422.387 264.712 422.648 265.309 422.816C265.925 422.984 266.56 423.068 267.213 423.068C268.053 423.068 268.707 422.891 269.173 422.536C269.659 422.181 269.901 421.659 269.901 420.968C269.901 420.539 269.771 420.193 269.509 419.932C269.267 419.652 268.987 419.447 268.669 419.316C268.371 419.185 267.801 418.98 266.961 418.7C266.831 418.663 266.336 418.495 265.477 418.196C264.619 417.897 263.956 417.431 263.489 416.796C263.041 416.161 262.817 415.377 262.817 414.444C262.817 413.287 263.265 412.316 264.161 411.532C265.057 410.748 266.373 410.356 268.109 410.356C268.837 410.356 269.519 410.44 270.153 410.608C270.807 410.776 271.488 411 272.197 411.28L271.497 413.352C270.881 413.109 270.303 412.913 269.761 412.764C269.239 412.615 268.688 412.54 268.109 412.54C267.232 412.54 266.569 412.717 266.121 413.072C265.673 413.408 265.449 413.856 265.449 414.416C265.449 414.939 265.627 415.331 265.981 415.592C266.336 415.835 266.905 416.096 267.689 416.376C267.895 416.432 268.081 416.497 268.249 416.572L268.921 416.824C269.705 417.085 270.331 417.347 270.797 417.608C271.283 417.869 271.693 418.271 272.029 418.812C272.365 419.335 272.533 420.035 272.533 420.912C272.533 422.293 272.039 423.367 271.049 424.132C270.079 424.879 268.809 425.252 267.241 425.252C266.327 425.252 265.477 425.159 264.693 424.972C263.909 424.767 263.125 424.496 262.341 424.16L263.153 422.032ZM276.42 405.176H278.996V407.612H276.42V405.176ZM276.42 410.608H278.996V425H276.42V410.608ZM282.683 417.776C282.683 415.443 283.271 413.623 284.447 412.316C285.641 411.009 287.331 410.356 289.515 410.356C291.699 410.356 293.379 411.009 294.555 412.316C295.749 413.623 296.347 415.443 296.347 417.776C296.347 420.109 295.749 421.939 294.555 423.264C293.379 424.571 291.699 425.224 289.515 425.224C287.331 425.224 285.641 424.571 284.447 423.264C283.271 421.939 282.683 420.109 282.683 417.776ZM285.371 417.776C285.371 419.531 285.725 420.865 286.435 421.78C287.163 422.695 288.189 423.152 289.515 423.152C290.84 423.152 291.857 422.695 292.567 421.78C293.295 420.865 293.659 419.531 293.659 417.776C293.659 416.021 293.295 414.696 292.567 413.8C291.857 412.885 290.84 412.428 289.515 412.428C288.189 412.428 287.163 412.885 286.435 413.8C285.725 414.696 285.371 416.021 285.371 417.776ZM307.437 410.356C308.967 410.356 310.134 410.795 310.937 411.672C311.758 412.549 312.169 413.819 312.169 415.48V425H309.537V415.676C309.537 414.537 309.313 413.716 308.865 413.212C308.435 412.689 307.735 412.428 306.765 412.428C305.887 412.428 305.085 412.633 304.357 413.044C303.629 413.436 303.031 413.987 302.565 414.696V425H299.933V410.608H302.089L302.397 412.624C303.685 411.112 305.365 410.356 307.437 410.356Z" fill="#5EB1E1"/>
<path d="M171.824 222.176C174.082 222.176 175.781 222.689 176.92 223.716C178.058 224.724 178.628 226.152 178.628 228C178.628 229.829 178.04 231.267 176.864 232.312C175.706 233.339 174.026 233.852 171.824 233.852H168.66V242H165.972V222.176H171.824ZM171.824 231.612C173.112 231.612 174.101 231.304 174.792 230.688C175.482 230.072 175.828 229.176 175.828 228C175.828 226.824 175.482 225.937 174.792 225.34C174.12 224.724 173.13 224.416 171.824 224.416H168.66V231.612H171.824ZM184.451 227.608L184.759 229.596C185.767 228.103 187.093 227.356 188.735 227.356C189.258 227.356 189.874 227.449 190.583 227.636L190.163 229.988C189.361 229.801 188.735 229.708 188.287 229.708C187.503 229.708 186.85 229.867 186.327 230.184C185.823 230.483 185.366 230.996 184.955 231.724V242H182.323V227.608H184.451ZM192.278 234.776C192.278 232.424 192.866 230.604 194.042 229.316C195.218 228.009 196.88 227.356 199.026 227.356C201.136 227.356 202.657 227.991 203.59 229.26C204.542 230.511 205.018 232.321 205.018 234.692V235.14H194.966C195.004 236.764 195.386 238.005 196.114 238.864C196.842 239.723 197.888 240.152 199.25 240.152C199.997 240.152 200.716 240.068 201.406 239.9C202.097 239.713 202.862 239.433 203.702 239.06L204.458 240.852C203.506 241.337 202.601 241.692 201.742 241.916C200.884 242.121 200.006 242.224 199.11 242.224C196.945 242.224 195.265 241.571 194.07 240.264C192.876 238.957 192.278 237.128 192.278 234.776ZM199.026 229.428C197.925 229.428 197.038 229.745 196.366 230.38C195.713 231.015 195.284 231.948 195.078 233.18H202.246C202.116 231.892 201.789 230.949 201.266 230.352C200.744 229.736 199.997 229.428 199.026 229.428ZM220.448 227.58V242.84C220.448 246.965 218.264 249.028 213.896 249.028C211.787 249.028 209.789 248.543 207.904 247.572L208.8 245.64C209.808 246.144 210.676 246.489 211.404 246.676C212.132 246.863 212.963 246.956 213.896 246.956C215.296 246.956 216.295 246.639 216.892 246.004C217.508 245.388 217.816 244.352 217.816 242.896V240.376C216.808 241.608 215.436 242.224 213.7 242.224C211.703 242.224 210.144 241.608 209.024 240.376C207.923 239.125 207.372 237.343 207.372 235.028C207.372 232.62 208.025 230.744 209.332 229.4C210.657 228.037 212.468 227.356 214.764 227.356C215.977 227.356 217.144 227.533 218.264 227.888L218.348 227.58H220.448ZM213.868 240.152C214.839 240.152 215.669 239.891 216.36 239.368C217.069 238.827 217.555 238.08 217.816 237.128V229.848C216.864 229.568 215.856 229.428 214.792 229.428C213.317 229.428 212.16 229.923 211.32 230.912C210.48 231.883 210.06 233.255 210.06 235.028C210.06 236.671 210.387 237.94 211.04 238.836C211.712 239.713 212.655 240.152 213.868 240.152ZM232.564 227.356C234.094 227.356 235.261 227.795 236.064 228.672C236.885 229.549 237.296 230.819 237.296 232.48V242H234.664V232.676C234.664 231.537 234.44 230.716 233.992 230.212C233.562 229.689 232.862 229.428 231.892 229.428C231.014 229.428 230.212 229.633 229.484 230.044C228.756 230.436 228.158 230.987 227.692 231.696V242H225.06V227.608H227.216L227.524 229.624C228.812 228.112 230.492 227.356 232.564 227.356ZM240.675 238.108C240.675 236.577 241.291 235.392 242.523 234.552C243.755 233.712 245.501 233.292 247.759 233.292H249.887V232.732C249.887 231.537 249.635 230.688 249.131 230.184C248.646 229.68 247.806 229.428 246.611 229.428C245.846 229.428 245.165 229.503 244.567 229.652C243.97 229.783 243.205 230.053 242.271 230.464L241.487 228.644C243.242 227.785 244.969 227.356 246.667 227.356C248.702 227.356 250.186 227.795 251.119 228.672C252.053 229.531 252.519 230.903 252.519 232.788V242H250.475C250.457 241.925 250.419 241.748 250.363 241.468C250.307 241.169 250.223 240.787 250.111 240.32C248.767 241.664 247.199 242.336 245.407 242.336C243.97 242.336 242.822 241.953 241.963 241.188C241.105 240.423 240.675 239.396 240.675 238.108ZM243.307 238.052C243.307 238.761 243.531 239.312 243.979 239.704C244.427 240.077 245.071 240.264 245.911 240.264C246.658 240.264 247.386 240.096 248.095 239.76C248.805 239.405 249.402 238.929 249.887 238.332V235.252H247.927C246.397 235.252 245.239 235.485 244.455 235.952C243.69 236.419 243.307 237.119 243.307 238.052ZM264.474 227.356C266.004 227.356 267.171 227.795 267.974 228.672C268.795 229.549 269.206 230.819 269.206 232.48V242H266.574V232.676C266.574 231.537 266.35 230.716 265.902 230.212C265.472 229.689 264.772 229.428 263.802 229.428C262.924 229.428 262.122 229.633 261.394 230.044C260.666 230.436 260.068 230.987 259.602 231.696V242H256.97V227.608H259.126L259.434 229.624C260.722 228.112 262.402 227.356 264.474 227.356ZM272.642 234.776C272.642 232.461 273.22 230.651 274.378 229.344C275.535 228.019 277.252 227.356 279.53 227.356C281.714 227.356 283.375 228.149 284.514 229.736L282.75 231.052C282.302 230.511 281.816 230.109 281.294 229.848C280.79 229.568 280.202 229.428 279.53 229.428C278.204 229.428 277.168 229.885 276.422 230.8C275.694 231.696 275.33 233.021 275.33 234.776C275.33 236.549 275.703 237.893 276.45 238.808C277.215 239.704 278.298 240.152 279.698 240.152C280.482 240.152 281.144 240.068 281.686 239.9C282.227 239.713 282.834 239.471 283.506 239.172L284.234 240.964C282.852 241.767 281.275 242.168 279.502 242.168C277.243 242.168 275.535 241.515 274.378 240.208C273.22 238.901 272.642 237.091 272.642 234.776ZM296.585 227.608H299.133L291.713 248.888H289.333L291.685 242H290.593L285.497 227.608H288.213L292.441 239.788L296.585 227.608Z" fill="#5EB1E1"/>
<path d="M173.066 567.92C173.215 567.976 173.598 568.135 174.214 568.396C174.83 568.657 175.474 568.872 176.146 569.04C176.837 569.189 177.518 569.264 178.19 569.264C179.441 569.264 180.43 568.965 181.158 568.368C181.886 567.752 182.25 566.912 182.25 565.848C182.25 565.12 182.063 564.532 181.69 564.084C181.335 563.636 180.878 563.291 180.318 563.048C179.758 562.805 179.011 562.544 178.078 562.264C176.902 561.909 175.959 561.564 175.25 561.228C174.559 560.892 173.962 560.369 173.458 559.66C172.973 558.951 172.73 557.999 172.73 556.804C172.73 555.143 173.29 553.799 174.41 552.772C175.549 551.745 177.238 551.232 179.478 551.232C181.009 551.232 182.642 551.596 184.378 552.324L183.734 554.48C182.147 553.827 180.757 553.5 179.562 553.5C178.274 553.5 177.275 553.771 176.566 554.312C175.857 554.835 175.511 555.553 175.53 556.468C175.53 557.177 175.707 557.747 176.062 558.176C176.435 558.605 176.883 558.941 177.406 559.184C177.947 559.427 178.666 559.688 179.562 559.968C180.757 560.341 181.709 560.715 182.418 561.088C183.127 561.461 183.734 562.031 184.238 562.796C184.761 563.543 185.022 564.56 185.022 565.848C185.022 567.677 184.406 569.087 183.174 570.076C181.961 571.047 180.337 571.532 178.302 571.532C177.126 571.532 176.09 571.401 175.194 571.14C174.317 570.897 173.355 570.561 172.31 570.132L173.066 567.92ZM205.262 556.356C206.886 556.356 208.109 556.795 208.93 557.672C209.751 558.531 210.162 559.8 210.162 561.48V571H207.53V561.676C207.53 560.537 207.306 559.716 206.858 559.212C206.429 558.689 205.729 558.428 204.758 558.428C203.918 558.428 203.134 558.633 202.406 559.044C201.697 559.436 201.127 559.987 200.698 560.696C200.717 560.864 200.726 561.125 200.726 561.48V571H198.094V561.676C198.094 560.537 197.87 559.716 197.422 559.212C196.993 558.689 196.293 558.428 195.322 558.428C194.482 558.428 193.707 558.633 192.998 559.044C192.289 559.436 191.71 559.977 191.262 560.668V571H188.63V556.608H190.786L191.066 558.568C192.317 557.093 193.903 556.356 195.826 556.356C198.085 556.356 199.569 557.196 200.278 558.876C201.547 557.196 203.209 556.356 205.262 556.356ZM213.599 563.776C213.599 561.443 214.187 559.623 215.363 558.316C216.557 557.009 218.247 556.356 220.431 556.356C222.615 556.356 224.295 557.009 225.471 558.316C226.665 559.623 227.263 561.443 227.263 563.776C227.263 566.109 226.665 567.939 225.471 569.264C224.295 570.571 222.615 571.224 220.431 571.224C218.247 571.224 216.557 570.571 215.363 569.264C214.187 567.939 213.599 566.109 213.599 563.776ZM216.287 563.776C216.287 565.531 216.641 566.865 217.351 567.78C218.079 568.695 219.105 569.152 220.431 569.152C221.756 569.152 222.773 568.695 223.483 567.78C224.211 566.865 224.575 565.531 224.575 563.776C224.575 562.021 224.211 560.696 223.483 559.8C222.773 558.885 221.756 558.428 220.431 558.428C219.105 558.428 218.079 558.885 217.351 559.8C216.641 560.696 216.287 562.021 216.287 563.776ZM230.933 571V549.748H233.565V571H230.933ZM237.037 562.684L243.197 571H240.089L234.013 562.824L239.193 556.608H242.161L237.037 562.684ZM245.672 551.176H248.248V553.612H245.672V551.176ZM245.672 556.608H248.248V571H245.672V556.608ZM260.446 556.356C261.977 556.356 263.144 556.795 263.946 557.672C264.768 558.549 265.178 559.819 265.178 561.48V571H262.546V561.676C262.546 560.537 262.322 559.716 261.874 559.212C261.445 558.689 260.745 558.428 259.774 558.428C258.897 558.428 258.094 558.633 257.366 559.044C256.638 559.436 256.041 559.987 255.574 560.696V571H252.942V556.608H255.098L255.406 558.624C256.694 557.112 258.374 556.356 260.446 556.356ZM281.69 556.58V571.84C281.69 575.965 279.506 578.028 275.138 578.028C273.029 578.028 271.032 577.543 269.146 576.572L270.042 574.64C271.05 575.144 271.918 575.489 272.646 575.676C273.374 575.863 274.205 575.956 275.138 575.956C276.538 575.956 277.537 575.639 278.134 575.004C278.75 574.388 279.058 573.352 279.058 571.896V569.376C278.05 570.608 276.678 571.224 274.942 571.224C272.945 571.224 271.386 570.608 270.266 569.376C269.165 568.125 268.614 566.343 268.614 564.028C268.614 561.62 269.268 559.744 270.574 558.4C271.9 557.037 273.71 556.356 276.006 556.356C277.22 556.356 278.386 556.533 279.506 556.888L279.59 556.58H281.69ZM275.11 569.152C276.081 569.152 276.912 568.891 277.602 568.368C278.312 567.827 278.797 567.08 279.058 566.128V558.848C278.106 558.568 277.098 558.428 276.034 558.428C274.56 558.428 273.402 558.923 272.562 559.912C271.722 560.883 271.302 562.255 271.302 564.028C271.302 565.671 271.629 566.94 272.282 567.836C272.954 568.713 273.897 569.152 275.11 569.152Z" fill="#5EB1E1"/>
<path d="M875.444 50L873.372 44.176H865.504L863.516 50H860.828L867.66 30.176H870.964L878.048 50H875.444ZM866.288 41.936H872.56L869.368 32.948L866.288 41.936ZM880.783 28.748H883.359V50H880.783V28.748ZM888.166 28.748H890.742V50H888.166V28.748ZM894.429 42.776C894.429 40.424 895.017 38.604 896.193 37.316C897.369 36.0093 899.03 35.356 901.177 35.356C903.286 35.356 904.807 35.9907 905.741 37.26C906.693 38.5107 907.169 40.3213 907.169 42.692V43.14H897.117C897.154 44.764 897.537 46.0053 898.265 46.864C898.993 47.7227 900.038 48.152 901.401 48.152C902.147 48.152 902.866 48.068 903.557 47.9C904.247 47.7133 905.013 47.4333 905.853 47.06L906.609 48.852C905.657 49.3373 904.751 49.692 903.893 49.916C903.034 50.1213 902.157 50.224 901.261 50.224C899.095 50.224 897.415 49.5707 896.221 48.264C895.026 46.9573 894.429 45.128 894.429 42.776ZM901.177 37.428C900.075 37.428 899.189 37.7453 898.517 38.38C897.863 39.0147 897.434 39.948 897.229 41.18H904.397C904.266 39.892 903.939 38.9493 903.417 38.352C902.894 37.736 902.147 37.428 901.177 37.428ZM912.742 35.608L913.05 37.596C914.058 36.1027 915.384 35.356 917.026 35.356C917.549 35.356 918.165 35.4493 918.874 35.636L918.454 37.988C917.652 37.8013 917.026 37.708 916.578 37.708C915.794 37.708 915.141 37.8667 914.618 38.184C914.114 38.4827 913.657 38.996 913.246 39.724V50H910.614V35.608H912.742ZM933.645 35.58V50.84C933.645 54.9653 931.461 57.028 927.093 57.028C924.984 57.028 922.987 56.5427 921.101 55.572L921.997 53.64C923.005 54.144 923.873 54.4893 924.601 54.676C925.329 54.8627 926.16 54.956 927.093 54.956C928.493 54.956 929.492 54.6387 930.089 54.004C930.705 53.388 931.013 52.352 931.013 50.896V48.376C930.005 49.608 928.633 50.224 926.897 50.224C924.9 50.224 923.341 49.608 922.221 48.376C921.12 47.1253 920.569 45.3427 920.569 43.028C920.569 40.62 921.223 38.744 922.529 37.4C923.855 36.0373 925.665 35.356 927.961 35.356C929.175 35.356 930.341 35.5333 931.461 35.888L931.545 35.58H933.645ZM927.065 48.152C928.036 48.152 928.867 47.8907 929.557 47.368C930.267 46.8267 930.752 46.08 931.013 45.128V37.848C930.061 37.568 929.053 37.428 927.989 37.428C926.515 37.428 925.357 37.9227 924.517 38.912C923.677 39.8827 923.257 41.2547 923.257 43.028C923.257 44.6707 923.584 45.94 924.237 46.836C924.909 47.7133 925.852 48.152 927.065 48.152ZM938.369 30.176H940.945V32.612H938.369V30.176ZM938.369 35.608H940.945V50H938.369V35.608ZM944.632 42.776C944.632 40.424 945.22 38.604 946.396 37.316C947.572 36.0093 949.233 35.356 951.38 35.356C953.489 35.356 955.01 35.9907 955.944 37.26C956.896 38.5107 957.372 40.3213 957.372 42.692V43.14H947.32C947.357 44.764 947.74 46.0053 948.468 46.864C949.196 47.7227 950.241 48.152 951.604 48.152C952.35 48.152 953.069 48.068 953.76 47.9C954.45 47.7133 955.216 47.4333 956.056 47.06L956.812 48.852C955.86 49.3373 954.954 49.692 954.096 49.916C953.237 50.1213 952.36 50.224 951.464 50.224C949.298 50.224 947.618 49.5707 946.424 48.264C945.229 46.9573 944.632 45.128 944.632 42.776ZM951.38 37.428C950.278 37.428 949.392 37.7453 948.72 38.38C948.066 39.0147 947.637 39.948 947.432 41.18H954.6C954.469 39.892 954.142 38.9493 953.62 38.352C953.097 37.736 952.35 37.428 951.38 37.428ZM960.65 47.032C961.49 47.3867 962.208 47.648 962.806 47.816C963.422 47.984 964.056 48.068 964.71 48.068C965.55 48.068 966.203 47.8907 966.669 47.536C967.155 47.1813 967.398 46.6587 967.398 45.968C967.398 45.5387 967.267 45.1933 967.006 44.932C966.763 44.652 966.483 44.4467 966.166 44.316C965.867 44.1853 965.298 43.98 964.458 43.7C964.327 43.6627 963.832 43.4947 962.974 43.196C962.115 42.8973 961.452 42.4307 960.986 41.796C960.538 41.1613 960.314 40.3773 960.314 39.444C960.314 38.2867 960.762 37.316 961.658 36.532C962.554 35.748 963.87 35.356 965.606 35.356C966.334 35.356 967.015 35.44 967.65 35.608C968.303 35.776 968.984 36 969.694 36.28L968.994 38.352C968.378 38.1093 967.799 37.9133 967.258 37.764C966.735 37.6147 966.184 37.54 965.606 37.54C964.728 37.54 964.066 37.7173 963.618 38.072C963.17 38.408 962.946 38.856 962.946 39.416C962.946 39.9387 963.123 40.3307 963.478 40.592C963.832 40.8347 964.402 41.096 965.186 41.376C965.391 41.432 965.578 41.4973 965.746 41.572L966.418 41.824C967.202 42.0853 967.827 42.3467 968.294 42.608C968.779 42.8693 969.19 43.2707 969.526 43.812C969.862 44.3347 970.03 45.0347 970.03 45.912C970.03 47.2933 969.535 48.3667 968.546 49.132C967.575 49.8787 966.306 50.252 964.738 50.252C963.823 50.252 962.974 50.1587 962.19 49.972C961.406 49.7667 960.622 49.496 959.838 49.16L960.65 47.032Z" fill="#2D9CDB"/>
<path d="M180.786 95.176C183.717 95.176 185.966 96.044 187.534 97.78C189.102 99.4973 189.886 101.915 189.886 105.032C189.886 108.168 189.093 110.613 187.506 112.368C185.938 114.123 183.698 115 180.786 115H174.374V95.176H180.786ZM180.786 112.76C182.802 112.76 184.351 112.116 185.434 110.828C186.535 109.54 187.086 107.608 187.086 105.032C187.086 102.475 186.535 100.571 185.434 99.32C184.351 98.0507 182.802 97.416 180.786 97.416H177.062V112.76H180.786ZM193.543 95.176H196.119V97.612H193.543V95.176ZM193.543 100.608H196.119V115H193.543V100.608ZM199.75 111.108C199.75 109.577 200.366 108.392 201.598 107.552C202.83 106.712 204.575 106.292 206.834 106.292H208.962V105.732C208.962 104.537 208.71 103.688 208.206 103.184C207.72 102.68 206.88 102.428 205.686 102.428C204.92 102.428 204.239 102.503 203.642 102.652C203.044 102.783 202.279 103.053 201.346 103.464L200.562 101.644C202.316 100.785 204.043 100.356 205.742 100.356C207.776 100.356 209.26 100.795 210.194 101.672C211.127 102.531 211.594 103.903 211.594 105.788V115H209.55C209.531 114.925 209.494 114.748 209.438 114.468C209.382 114.169 209.298 113.787 209.186 113.32C207.842 114.664 206.274 115.336 204.482 115.336C203.044 115.336 201.896 114.953 201.038 114.188C200.179 113.423 199.75 112.396 199.75 111.108ZM202.382 111.052C202.382 111.761 202.606 112.312 203.054 112.704C203.502 113.077 204.146 113.264 204.986 113.264C205.732 113.264 206.46 113.096 207.17 112.76C207.879 112.405 208.476 111.929 208.962 111.332V108.252H207.002C205.471 108.252 204.314 108.485 203.53 108.952C202.764 109.419 202.382 110.119 202.382 111.052ZM222.848 100.356C224.845 100.356 226.395 100.981 227.496 102.232C228.616 103.464 229.176 105.237 229.176 107.552C229.176 109.96 228.513 111.845 227.188 113.208C225.881 114.552 224.08 115.224 221.784 115.224C220.272 115.224 218.807 114.944 217.388 114.384L216.128 114.076V93.748H218.76V102.176C219.768 100.963 221.131 100.356 222.848 100.356ZM221.756 113.152C223.231 113.152 224.388 112.667 225.228 111.696C226.068 110.707 226.488 109.325 226.488 107.552C226.488 105.909 226.152 104.649 225.48 103.772C224.827 102.876 223.893 102.428 222.68 102.428C221.709 102.428 220.879 102.689 220.188 103.212C219.497 103.735 219.021 104.453 218.76 105.368V112.732C219.712 113.012 220.711 113.152 221.756 113.152ZM231.743 107.776C231.743 105.424 232.331 103.604 233.507 102.316C234.683 101.009 236.344 100.356 238.491 100.356C240.6 100.356 242.122 100.991 243.055 102.26C244.007 103.511 244.483 105.321 244.483 107.692V108.14H234.431C234.468 109.764 234.851 111.005 235.579 111.864C236.307 112.723 237.352 113.152 238.715 113.152C239.462 113.152 240.18 113.068 240.871 112.9C241.562 112.713 242.327 112.433 243.167 112.06L243.923 113.852C242.971 114.337 242.066 114.692 241.207 114.916C240.348 115.121 239.471 115.224 238.575 115.224C236.41 115.224 234.73 114.571 233.535 113.264C232.34 111.957 231.743 110.128 231.743 107.776ZM238.491 102.428C237.39 102.428 236.503 102.745 235.831 103.38C235.178 104.015 234.748 104.948 234.543 106.18H241.711C241.58 104.892 241.254 103.949 240.731 103.352C240.208 102.736 239.462 102.428 238.491 102.428ZM246.361 102.624V100.608H249.105L249.553 96.408H251.513V100.608H255.909V102.624H251.513V110.576C251.513 112.237 252.213 113.068 253.613 113.068C254.173 113.068 254.863 112.937 255.685 112.676L256.133 114.524C255.106 114.953 254.107 115.168 253.137 115.168C251.886 115.168 250.859 114.795 250.057 114.048C249.273 113.301 248.881 112.191 248.881 110.716V102.624H246.361ZM258.13 107.776C258.13 105.424 258.718 103.604 259.894 102.316C261.07 101.009 262.731 100.356 264.878 100.356C266.987 100.356 268.508 100.991 269.442 102.26C270.394 103.511 270.87 105.321 270.87 107.692V108.14H260.818C260.855 109.764 261.238 111.005 261.966 111.864C262.694 112.723 263.739 113.152 265.102 113.152C265.848 113.152 266.567 113.068 267.258 112.9C267.948 112.713 268.714 112.433 269.554 112.06L270.31 113.852C269.358 114.337 268.452 114.692 267.594 114.916C266.735 115.121 265.858 115.224 264.962 115.224C262.796 115.224 261.116 114.571 259.922 113.264C258.727 111.957 258.13 110.128 258.13 107.776ZM264.878 102.428C263.776 102.428 262.89 102.745 262.218 103.38C261.564 104.015 261.135 104.948 260.93 106.18H268.098C267.967 104.892 267.64 103.949 267.118 103.352C266.595 102.736 265.848 102.428 264.878 102.428ZM274.148 112.032C274.988 112.387 275.706 112.648 276.304 112.816C276.92 112.984 277.554 113.068 278.208 113.068C279.048 113.068 279.701 112.891 280.168 112.536C280.653 112.181 280.896 111.659 280.896 110.968C280.896 110.539 280.765 110.193 280.504 109.932C280.261 109.652 279.981 109.447 279.664 109.316C279.365 109.185 278.796 108.98 277.956 108.7C277.825 108.663 277.33 108.495 276.472 108.196C275.613 107.897 274.95 107.431 274.484 106.796C274.036 106.161 273.812 105.377 273.812 104.444C273.812 103.287 274.26 102.316 275.156 101.532C276.052 100.748 277.368 100.356 279.104 100.356C279.832 100.356 280.513 100.44 281.148 100.608C281.801 100.776 282.482 101 283.192 101.28L282.492 103.352C281.876 103.109 281.297 102.913 280.756 102.764C280.233 102.615 279.682 102.54 279.104 102.54C278.226 102.54 277.564 102.717 277.116 103.072C276.668 103.408 276.444 103.856 276.444 104.416C276.444 104.939 276.621 105.331 276.976 105.592C277.33 105.835 277.9 106.096 278.684 106.376C278.889 106.432 279.076 106.497 279.244 106.572L279.916 106.824C280.7 107.085 281.325 107.347 281.792 107.608C282.277 107.869 282.688 108.271 283.024 108.812C283.36 109.335 283.528 110.035 283.528 110.912C283.528 112.293 283.033 113.367 282.044 114.132C281.073 114.879 279.804 115.252 278.236 115.252C277.321 115.252 276.472 115.159 275.688 114.972C274.904 114.767 274.12 114.496 273.336 114.16L274.148 112.032Z" fill="#2D9CDB" fill-opacity="0.75"/>
<path d="M63.3748 173.146L57.9928 163.716H60.4078L64.4788 171.007L68.5728 163.716H70.9648L65.5598 173.146V180H63.3748V173.146ZM70.9765 174.066C70.9765 172.134 71.4595 170.639 72.4255 169.581C73.3915 168.508 74.7561 167.971 76.5195 167.971C78.2521 167.971 79.5018 168.492 80.2685 169.535C81.0505 170.562 81.4415 172.05 81.4415 173.997V174.365H73.1845C73.2151 175.699 73.5295 176.719 74.1275 177.424C74.7255 178.129 75.5841 178.482 76.7035 178.482C77.3168 178.482 77.9071 178.413 78.4745 178.275C79.0418 178.122 79.6705 177.892 80.3605 177.585L80.9815 179.057C80.1995 179.456 79.4558 179.747 78.7505 179.931C78.0451 180.1 77.3245 180.184 76.5885 180.184C74.8098 180.184 73.4298 179.647 72.4485 178.574C71.4671 177.501 70.9765 175.998 70.9765 174.066ZM76.5195 169.673C75.6148 169.673 74.8865 169.934 74.3345 170.455C73.7978 170.976 73.4451 171.743 73.2765 172.755H79.1645C79.0571 171.697 78.7888 170.923 78.3595 170.432C77.9301 169.926 77.3168 169.673 76.5195 169.673ZM84.1339 177.562C84.8239 177.853 85.4142 178.068 85.9049 178.206C86.4109 178.344 86.9322 178.413 87.4689 178.413C88.1589 178.413 88.6956 178.267 89.0789 177.976C89.4776 177.685 89.6769 177.255 89.6769 176.688C89.6769 176.335 89.5696 176.052 89.3549 175.837C89.1556 175.607 88.9256 175.438 88.6649 175.331C88.4196 175.224 87.9519 175.055 87.2619 174.825C87.1546 174.794 86.7482 174.656 86.0429 174.411C85.3376 174.166 84.7932 173.782 84.4099 173.261C84.0419 172.74 83.8579 172.096 83.8579 171.329C83.8579 170.378 84.2259 169.581 84.9619 168.937C85.6979 168.293 86.7789 167.971 88.2049 167.971C88.8029 167.971 89.3626 168.04 89.8839 168.178C90.4206 168.316 90.9802 168.5 91.5629 168.73L90.9879 170.432C90.4819 170.233 90.0066 170.072 89.5619 169.949C89.1326 169.826 88.6802 169.765 88.2049 169.765C87.4842 169.765 86.9399 169.911 86.5719 170.202C86.2039 170.478 86.0199 170.846 86.0199 171.306C86.0199 171.735 86.1656 172.057 86.4569 172.272C86.7482 172.471 87.2159 172.686 87.8599 172.916C88.0286 172.962 88.1819 173.016 88.3199 173.077L88.8719 173.284C89.5159 173.499 90.0296 173.713 90.4129 173.928C90.8116 174.143 91.1489 174.472 91.4249 174.917C91.7009 175.346 91.8389 175.921 91.8389 176.642C91.8389 177.777 91.4326 178.658 90.6199 179.287C89.8226 179.9 88.7799 180.207 87.4919 180.207C86.7406 180.207 86.0429 180.13 85.3989 179.977C84.7549 179.808 84.1109 179.586 83.4669 179.31L84.1339 177.562Z" fill="#5EB1E1"/>
<path d="M296.228 163.716L301.564 172.341C301.917 172.908 302.377 173.706 302.944 174.733C303.511 175.76 303.81 176.305 303.841 176.366V163.716H306.003V180H303.772L298.045 170.57C297.6 169.834 297.14 169.044 296.665 168.201C296.205 167.358 295.906 166.806 295.768 166.545V180H293.652V163.716H296.228ZM308.973 174.066C308.973 172.149 309.456 170.654 310.422 169.581C311.403 168.508 312.791 167.971 314.585 167.971C316.379 167.971 317.759 168.508 318.725 169.581C319.706 170.654 320.197 172.149 320.197 174.066C320.197 175.983 319.706 177.485 318.725 178.574C317.759 179.647 316.379 180.184 314.585 180.184C312.791 180.184 311.403 179.647 310.422 178.574C309.456 177.485 308.973 175.983 308.973 174.066ZM311.181 174.066C311.181 175.507 311.472 176.604 312.055 177.355C312.653 178.106 313.496 178.482 314.585 178.482C315.674 178.482 316.509 178.106 317.092 177.355C317.69 176.604 317.989 175.507 317.989 174.066C317.989 172.625 317.69 171.536 317.092 170.8C316.509 170.049 315.674 169.673 314.585 169.673C313.496 169.673 312.653 170.049 312.055 170.8C311.472 171.536 311.181 172.625 311.181 174.066Z" fill="#7ABDE4"/>
<line x1="3.99885" y1="77.5" x2="451.999" y2="76.4661" stroke="#E7E7E7"/>
<line x1="744" y1="71.5" x2="1087" y2="71.4661" stroke="#E7E7E7"/>
<path d="M118.366 32.176H121.054V40.604H131.19V32.176H133.878V52H131.19V42.844H121.054V52H118.366V32.176ZM137.536 44.776C137.536 42.424 138.124 40.604 139.3 39.316C140.476 38.0093 142.137 37.356 144.284 37.356C146.393 37.356 147.915 37.9907 148.848 39.26C149.8 40.5107 150.276 42.3213 150.276 44.692V45.14H140.224C140.261 46.764 140.644 48.0053 141.372 48.864C142.1 49.7227 143.145 50.152 144.508 50.152C145.255 50.152 145.973 50.068 146.664 49.9C147.355 49.7133 148.12 49.4333 148.96 49.06L149.716 50.852C148.764 51.3373 147.859 51.692 147 51.916C146.141 52.1213 145.264 52.224 144.368 52.224C142.203 52.224 140.523 51.5707 139.328 50.264C138.133 48.9573 137.536 47.128 137.536 44.776ZM144.284 39.428C143.183 39.428 142.296 39.7453 141.624 40.38C140.971 41.0147 140.541 41.948 140.336 43.18H147.504C147.373 41.892 147.047 40.9493 146.524 40.352C146.001 39.736 145.255 39.428 144.284 39.428ZM152.574 48.108C152.574 46.5773 153.19 45.392 154.422 44.552C155.654 43.712 157.399 43.292 159.658 43.292H161.786V42.732C161.786 41.5373 161.534 40.688 161.03 40.184C160.544 39.68 159.704 39.428 158.51 39.428C157.744 39.428 157.063 39.5027 156.466 39.652C155.868 39.7827 155.103 40.0533 154.17 40.464L153.386 38.644C155.14 37.7853 156.867 37.356 158.566 37.356C160.6 37.356 162.084 37.7947 163.018 38.672C163.951 39.5307 164.418 40.9027 164.418 42.788V52H162.374C162.355 51.9253 162.318 51.748 162.262 51.468C162.206 51.1693 162.122 50.7867 162.01 50.32C160.666 51.664 159.098 52.336 157.306 52.336C155.868 52.336 154.72 51.9533 153.862 51.188C153.003 50.4227 152.574 49.396 152.574 48.108ZM155.206 48.052C155.206 48.7613 155.43 49.312 155.878 49.704C156.326 50.0773 156.97 50.264 157.81 50.264C158.556 50.264 159.284 50.096 159.994 49.76C160.703 49.4053 161.3 48.9293 161.786 48.332V45.252H159.826C158.295 45.252 157.138 45.4853 156.354 45.952C155.588 46.4187 155.206 47.1187 155.206 48.052ZM168.98 30.748H171.556V52H168.98V30.748ZM174.767 39.624V37.608H177.511L177.959 33.408H179.919V37.608H184.315V39.624H179.919V47.576C179.919 49.2373 180.619 50.068 182.019 50.068C182.579 50.068 183.27 49.9373 184.091 49.676L184.539 51.524C183.512 51.9533 182.514 52.168 181.543 52.168C180.292 52.168 179.266 51.7947 178.463 51.048C177.679 50.3013 177.287 49.1907 177.287 47.716V39.624H174.767ZM195.132 37.356C196.663 37.356 197.829 37.7947 198.632 38.672C199.453 39.5493 199.864 40.8187 199.864 42.48V52H197.232V42.676C197.232 41.5373 197.008 40.716 196.56 40.212C196.131 39.6893 195.431 39.428 194.46 39.428C193.583 39.428 192.78 39.6333 192.052 40.044C191.324 40.436 190.727 40.9867 190.26 41.696V52H187.628V30.748H190.26V39.428C191.529 38.0467 193.153 37.356 195.132 37.356ZM213.518 37.608L213.826 39.596C214.834 38.1027 216.159 37.356 217.802 37.356C218.324 37.356 218.94 37.4493 219.65 37.636L219.23 39.988C218.427 39.8013 217.802 39.708 217.354 39.708C216.57 39.708 215.916 39.8667 215.394 40.184C214.89 40.4827 214.432 40.996 214.022 41.724V52H211.39V37.608H213.518ZM222.465 32.176H225.041V34.612H222.465V32.176ZM222.465 37.608H225.041V52H222.465V37.608ZM229.651 49.032C230.491 49.3867 231.21 49.648 231.807 49.816C232.423 49.984 233.058 50.068 233.711 50.068C234.551 50.068 235.205 49.8907 235.671 49.536C236.157 49.1813 236.399 48.6587 236.399 47.968C236.399 47.5387 236.269 47.1933 236.007 46.932C235.765 46.652 235.485 46.4467 235.167 46.316C234.869 46.1853 234.299 45.98 233.459 45.7C233.329 45.6627 232.834 45.4947 231.975 45.196C231.117 44.8973 230.454 44.4307 229.987 43.796C229.539 43.1613 229.315 42.3773 229.315 41.444C229.315 40.2867 229.763 39.316 230.659 38.532C231.555 37.748 232.871 37.356 234.607 37.356C235.335 37.356 236.017 37.44 236.651 37.608C237.305 37.776 237.986 38 238.695 38.28L237.995 40.352C237.379 40.1093 236.801 39.9133 236.259 39.764C235.737 39.6147 235.186 39.54 234.607 39.54C233.73 39.54 233.067 39.7173 232.619 40.072C232.171 40.408 231.947 40.856 231.947 41.416C231.947 41.9387 232.125 42.3307 232.479 42.592C232.834 42.8347 233.403 43.096 234.187 43.376C234.393 43.432 234.579 43.4973 234.747 43.572L235.419 43.824C236.203 44.0853 236.829 44.3467 237.295 44.608C237.781 44.8693 238.191 45.2707 238.527 45.812C238.863 46.3347 239.031 47.0347 239.031 47.912C239.031 49.2933 238.537 50.3667 237.547 51.132C236.577 51.8787 235.307 52.252 233.739 52.252C232.825 52.252 231.975 52.1587 231.191 51.972C230.407 51.7667 229.623 51.496 228.839 51.16L229.651 49.032ZM242.89 52V30.748H245.522V52H242.89ZM248.994 43.684L255.154 52H252.046L245.97 43.824L251.15 37.608H254.118L248.994 43.684ZM262.949 39.624V37.608H265.469V35.48C265.469 33.8373 265.898 32.6333 266.757 31.868C267.615 31.1027 268.717 30.72 270.061 30.72C270.714 30.72 271.302 30.7853 271.825 30.916C272.347 31.028 272.907 31.2147 273.505 31.476L272.721 33.324C271.862 32.988 271.059 32.82 270.313 32.82C269.622 32.82 269.081 33.0347 268.689 33.464C268.297 33.8933 268.101 34.5 268.101 35.284V37.608H272.525V39.624H268.101V56.368H265.469V39.624H262.949ZM273.597 48.108C273.597 46.5773 274.213 45.392 275.445 44.552C276.677 43.712 278.423 43.292 280.681 43.292H282.809V42.732C282.809 41.5373 282.557 40.688 282.053 40.184C281.568 39.68 280.728 39.428 279.533 39.428C278.768 39.428 278.087 39.5027 277.489 39.652C276.892 39.7827 276.127 40.0533 275.193 40.464L274.409 38.644C276.164 37.7853 277.891 37.356 279.589 37.356C281.624 37.356 283.108 37.7947 284.041 38.672C284.975 39.5307 285.441 40.9027 285.441 42.788V52H283.397C283.379 51.9253 283.341 51.748 283.285 51.468C283.229 51.1693 283.145 50.7867 283.033 50.32C281.689 51.664 280.121 52.336 278.329 52.336C276.892 52.336 275.744 51.9533 274.885 51.188C274.027 50.4227 273.597 49.396 273.597 48.108ZM276.229 48.052C276.229 48.7613 276.453 49.312 276.901 49.704C277.349 50.0773 277.993 50.264 278.833 50.264C279.58 50.264 280.308 50.096 281.017 49.76C281.727 49.4053 282.324 48.9293 282.809 48.332V45.252H280.849C279.319 45.252 278.161 45.4853 277.377 45.952C276.612 46.4187 276.229 47.1187 276.229 48.052ZM288.884 44.776C288.884 42.4613 289.462 40.6507 290.62 39.344C291.777 38.0187 293.494 37.356 295.772 37.356C297.956 37.356 299.617 38.1493 300.756 39.736L298.992 41.052C298.544 40.5107 298.058 40.1093 297.536 39.848C297.032 39.568 296.444 39.428 295.772 39.428C294.446 39.428 293.41 39.8853 292.664 40.8C291.936 41.696 291.572 43.0213 291.572 44.776C291.572 46.5493 291.945 47.8933 292.692 48.808C293.457 49.704 294.54 50.152 295.94 50.152C296.724 50.152 297.386 50.068 297.928 49.9C298.469 49.7133 299.076 49.4707 299.748 49.172L300.476 50.964C299.094 51.7667 297.517 52.168 295.744 52.168C293.485 52.168 291.777 51.5147 290.62 50.208C289.462 48.9013 288.884 47.0907 288.884 44.776ZM302.244 39.624V37.608H304.988L305.436 33.408H307.396V37.608H311.792V39.624H307.396V47.576C307.396 49.2373 308.096 50.068 309.496 50.068C310.056 50.068 310.746 49.9373 311.568 49.676L312.016 51.524C310.989 51.9533 309.99 52.168 309.02 52.168C307.769 52.168 306.742 51.7947 305.94 51.048C305.156 50.3013 304.764 49.1907 304.764 47.716V39.624H302.244ZM314.013 44.776C314.013 42.4427 314.601 40.6227 315.777 39.316C316.971 38.0093 318.661 37.356 320.845 37.356C323.029 37.356 324.709 38.0093 325.885 39.316C327.079 40.6227 327.677 42.4427 327.677 44.776C327.677 47.1093 327.079 48.9387 325.885 50.264C324.709 51.5707 323.029 52.224 320.845 52.224C318.661 52.224 316.971 51.5707 315.777 50.264C314.601 48.9387 314.013 47.1093 314.013 44.776ZM316.701 44.776C316.701 46.5307 317.055 47.8653 317.765 48.78C318.493 49.6947 319.519 50.152 320.845 50.152C322.17 50.152 323.187 49.6947 323.897 48.78C324.625 47.8653 324.989 46.5307 324.989 44.776C324.989 43.0213 324.625 41.696 323.897 40.8C323.187 39.8853 322.17 39.428 320.845 39.428C319.519 39.428 318.493 39.8853 317.765 40.8C317.055 41.696 316.701 43.0213 316.701 44.776ZM333.475 37.608L333.783 39.596C334.791 38.1027 336.116 37.356 337.759 37.356C338.281 37.356 338.897 37.4493 339.607 37.636L339.187 39.988C338.384 39.8013 337.759 39.708 337.311 39.708C336.527 39.708 335.873 39.8667 335.351 40.184C334.847 40.4827 334.389 40.996 333.979 41.724V52H331.347V37.608H333.475Z" fill="#2D9CDB"/>
<path d="M822.236 108.92C822.385 108.976 822.768 109.135 823.384 109.396C824 109.657 824.644 109.872 825.316 110.04C826.007 110.189 826.688 110.264 827.36 110.264C828.611 110.264 829.6 109.965 830.328 109.368C831.056 108.752 831.42 107.912 831.42 106.848C831.42 106.12 831.233 105.532 830.86 105.084C830.505 104.636 830.048 104.291 829.488 104.048C828.928 103.805 828.181 103.544 827.248 103.264C826.072 102.909 825.129 102.564 824.42 102.228C823.729 101.892 823.132 101.369 822.628 100.66C822.143 99.9507 821.9 98.9987 821.9 97.804C821.9 96.1427 822.46 94.7987 823.58 93.772C824.719 92.7453 826.408 92.232 828.648 92.232C830.179 92.232 831.812 92.596 833.548 93.324L832.904 95.48C831.317 94.8267 829.927 94.5 828.732 94.5C827.444 94.5 826.445 94.7707 825.736 95.312C825.027 95.8347 824.681 96.5533 824.7 97.468C824.7 98.1773 824.877 98.7467 825.232 99.176C825.605 99.6053 826.053 99.9413 826.576 100.184C827.117 100.427 827.836 100.688 828.732 100.968C829.927 101.341 830.879 101.715 831.588 102.088C832.297 102.461 832.904 103.031 833.408 103.796C833.931 104.543 834.192 105.56 834.192 106.848C834.192 108.677 833.576 110.087 832.344 111.076C831.131 112.047 829.507 112.532 827.472 112.532C826.296 112.532 825.26 112.401 824.364 112.14C823.487 111.897 822.525 111.561 821.48 111.132L822.236 108.92ZM836.792 104.776C836.792 102.424 837.38 100.604 838.556 99.316C839.732 98.0093 841.393 97.356 843.54 97.356C845.649 97.356 847.171 97.9907 848.104 99.26C849.056 100.511 849.532 102.321 849.532 104.692V105.14H839.48C839.517 106.764 839.9 108.005 840.628 108.864C841.356 109.723 842.401 110.152 843.764 110.152C844.511 110.152 845.229 110.068 845.92 109.9C846.611 109.713 847.376 109.433 848.216 109.06L848.972 110.852C848.02 111.337 847.115 111.692 846.256 111.916C845.397 112.121 844.52 112.224 843.624 112.224C841.459 112.224 839.779 111.571 838.584 110.264C837.389 108.957 836.792 107.128 836.792 104.776ZM843.54 99.428C842.439 99.428 841.552 99.7453 840.88 100.38C840.227 101.015 839.797 101.948 839.592 103.18H846.76C846.629 101.892 846.303 100.949 845.78 100.352C845.257 99.736 844.511 99.428 843.54 99.428ZM851.83 108.108C851.83 106.577 852.446 105.392 853.678 104.552C854.91 103.712 856.655 103.292 858.914 103.292H861.042V102.732C861.042 101.537 860.79 100.688 860.286 100.184C859.8 99.68 858.96 99.428 857.766 99.428C857 99.428 856.319 99.5027 855.722 99.652C855.124 99.7827 854.359 100.053 853.426 100.464L852.642 98.644C854.396 97.7853 856.123 97.356 857.822 97.356C859.856 97.356 861.34 97.7947 862.274 98.672C863.207 99.5307 863.674 100.903 863.674 102.788V112H861.63C861.611 111.925 861.574 111.748 861.518 111.468C861.462 111.169 861.378 110.787 861.266 110.32C859.922 111.664 858.354 112.336 856.562 112.336C855.124 112.336 853.976 111.953 853.118 111.188C852.259 110.423 851.83 109.396 851.83 108.108ZM854.462 108.052C854.462 108.761 854.686 109.312 855.134 109.704C855.582 110.077 856.226 110.264 857.066 110.264C857.812 110.264 858.54 110.096 859.25 109.76C859.959 109.405 860.556 108.929 861.042 108.332V105.252H859.082C857.551 105.252 856.394 105.485 855.61 105.952C854.844 106.419 854.462 107.119 854.462 108.052ZM870.336 97.608L870.644 99.596C871.652 98.1027 872.977 97.356 874.62 97.356C875.143 97.356 875.759 97.4493 876.468 97.636L876.048 99.988C875.245 99.8013 874.62 99.708 874.172 99.708C873.388 99.708 872.735 99.8667 872.212 100.184C871.708 100.483 871.251 100.996 870.84 101.724V112H868.208V97.608H870.336ZM878.163 104.776C878.163 102.461 878.742 100.651 879.899 99.344C881.056 98.0187 882.774 97.356 885.051 97.356C887.235 97.356 888.896 98.1493 890.035 99.736L888.271 101.052C887.823 100.511 887.338 100.109 886.815 99.848C886.311 99.568 885.723 99.428 885.051 99.428C883.726 99.428 882.69 99.8853 881.943 100.8C881.215 101.696 880.851 103.021 880.851 104.776C880.851 106.549 881.224 107.893 881.971 108.808C882.736 109.704 883.819 110.152 885.219 110.152C886.003 110.152 886.666 110.068 887.207 109.9C887.748 109.713 888.355 109.471 889.027 109.172L889.755 110.964C888.374 111.767 886.796 112.168 885.023 112.168C882.764 112.168 881.056 111.515 879.899 110.208C878.742 108.901 878.163 107.091 878.163 104.776ZM900.595 97.356C902.126 97.356 903.292 97.7947 904.095 98.672C904.916 99.5493 905.327 100.819 905.327 102.48V112H902.695V102.676C902.695 101.537 902.471 100.716 902.023 100.212C901.594 99.6893 900.894 99.428 899.923 99.428C899.046 99.428 898.243 99.6333 897.515 100.044C896.787 100.436 896.19 100.987 895.723 101.696V112H893.091V90.748H895.723V99.428C896.992 98.0467 898.616 97.356 900.595 97.356ZM915.705 108.108C915.705 106.577 916.321 105.392 917.553 104.552C918.785 103.712 920.53 103.292 922.789 103.292H924.917V102.732C924.917 101.537 924.665 100.688 924.161 100.184C923.675 99.68 922.835 99.428 921.641 99.428C920.875 99.428 920.194 99.5027 919.597 99.652C918.999 99.7827 918.234 100.053 917.301 100.464L916.517 98.644C918.271 97.7853 919.998 97.356 921.697 97.356C923.731 97.356 925.215 97.7947 926.149 98.672C927.082 99.5307 927.549 100.903 927.549 102.788V112H925.505C925.486 111.925 925.449 111.748 925.393 111.468C925.337 111.169 925.253 110.787 925.141 110.32C923.797 111.664 922.229 112.336 920.437 112.336C918.999 112.336 917.851 111.953 916.993 111.188C916.134 110.423 915.705 109.396 915.705 108.108ZM918.337 108.052C918.337 108.761 918.561 109.312 919.009 109.704C919.457 110.077 920.101 110.264 920.941 110.264C921.687 110.264 922.415 110.096 923.125 109.76C923.834 109.405 924.431 108.929 924.917 108.332V105.252H922.957C921.426 105.252 920.269 105.485 919.485 105.952C918.719 106.419 918.337 107.119 918.337 108.052ZM932.111 90.748H934.687V112H932.111V90.748ZM939.494 90.748H942.07V112H939.494V90.748ZM945.757 104.776C945.757 102.424 946.345 100.604 947.521 99.316C948.697 98.0093 950.358 97.356 952.505 97.356C954.614 97.356 956.135 97.9907 957.069 99.26C958.021 100.511 958.497 102.321 958.497 104.692V105.14H948.445C948.482 106.764 948.865 108.005 949.593 108.864C950.321 109.723 951.366 110.152 952.729 110.152C953.475 110.152 954.194 110.068 954.885 109.9C955.575 109.713 956.341 109.433 957.181 109.06L957.937 110.852C956.985 111.337 956.079 111.692 955.221 111.916C954.362 112.121 953.485 112.224 952.589 112.224C950.423 112.224 948.743 111.571 947.549 110.264C946.354 108.957 945.757 107.128 945.757 104.776ZM952.505 99.428C951.403 99.428 950.517 99.7453 949.845 100.38C949.191 101.015 948.762 101.948 948.557 103.18H955.725C955.594 101.892 955.267 100.949 954.745 100.352C954.222 99.736 953.475 99.428 952.505 99.428ZM964.071 97.608L964.379 99.596C965.387 98.1027 966.712 97.356 968.355 97.356C968.877 97.356 969.493 97.4493 970.203 97.636L969.783 99.988C968.98 99.8013 968.355 99.708 967.907 99.708C967.123 99.708 966.469 99.8667 965.947 100.184C965.443 100.483 964.985 100.996 964.575 101.724V112H961.943V97.608H964.071ZM984.973 97.58V112.84C984.973 116.965 982.789 119.028 978.421 119.028C976.312 119.028 974.315 118.543 972.429 117.572L973.325 115.64C974.333 116.144 975.201 116.489 975.929 116.676C976.657 116.863 977.488 116.956 978.421 116.956C979.821 116.956 980.82 116.639 981.417 116.004C982.033 115.388 982.341 114.352 982.341 112.896V110.376C981.333 111.608 979.961 112.224 978.225 112.224C976.228 112.224 974.669 111.608 973.549 110.376C972.448 109.125 971.897 107.343 971.897 105.028C971.897 102.62 972.551 100.744 973.857 99.4C975.183 98.0373 976.993 97.356 979.289 97.356C980.503 97.356 981.669 97.5333 982.789 97.888L982.873 97.58H984.973ZM978.393 110.152C979.364 110.152 980.195 109.891 980.885 109.368C981.595 108.827 982.08 108.08 982.341 107.128V99.848C981.389 99.568 980.381 99.428 979.317 99.428C977.843 99.428 976.685 99.9227 975.845 100.912C975.005 101.883 974.585 103.255 974.585 105.028C974.585 106.671 974.912 107.94 975.565 108.836C976.237 109.713 977.18 110.152 978.393 110.152ZM989.697 92.176H992.273V94.612H989.697V92.176ZM989.697 97.608H992.273V112H989.697V97.608ZM995.96 104.776C995.96 102.424 996.548 100.604 997.724 99.316C998.9 98.0093 1000.56 97.356 1002.71 97.356C1004.82 97.356 1006.34 97.9907 1007.27 99.26C1008.22 100.511 1008.7 102.321 1008.7 104.692V105.14H998.648C998.685 106.764 999.068 108.005 999.796 108.864C1000.52 109.723 1001.57 110.152 1002.93 110.152C1003.68 110.152 1004.4 110.068 1005.09 109.9C1005.78 109.713 1006.54 109.433 1007.38 109.06L1008.14 110.852C1007.19 111.337 1006.28 111.692 1005.42 111.916C1004.57 112.121 1003.69 112.224 1002.79 112.224C1000.63 112.224 998.947 111.571 997.752 110.264C996.557 108.957 995.96 107.128 995.96 104.776ZM1002.71 99.428C1001.61 99.428 1000.72 99.7453 1000.05 100.38C999.395 101.015 998.965 101.948 998.76 103.18H1005.93C1005.8 101.892 1005.47 100.949 1004.95 100.352C1004.43 99.736 1003.68 99.428 1002.71 99.428ZM1011.98 109.032C1012.82 109.387 1013.54 109.648 1014.13 109.816C1014.75 109.984 1015.38 110.068 1016.04 110.068C1016.88 110.068 1017.53 109.891 1018 109.536C1018.48 109.181 1018.73 108.659 1018.73 107.968C1018.73 107.539 1018.59 107.193 1018.33 106.932C1018.09 106.652 1017.81 106.447 1017.49 106.316C1017.19 106.185 1016.63 105.98 1015.79 105.7C1015.65 105.663 1015.16 105.495 1014.3 105.196C1013.44 104.897 1012.78 104.431 1012.31 103.796C1011.87 103.161 1011.64 102.377 1011.64 101.444C1011.64 100.287 1012.09 99.316 1012.99 98.532C1013.88 97.748 1015.2 97.356 1016.93 97.356C1017.66 97.356 1018.34 97.44 1018.98 97.608C1019.63 97.776 1020.31 98 1021.02 98.28L1020.32 100.352C1019.71 100.109 1019.13 99.9133 1018.59 99.764C1018.06 99.6147 1017.51 99.54 1016.93 99.54C1016.06 99.54 1015.39 99.7173 1014.95 100.072C1014.5 100.408 1014.27 100.856 1014.27 101.416C1014.27 101.939 1014.45 102.331 1014.81 102.592C1015.16 102.835 1015.73 103.096 1016.51 103.376C1016.72 103.432 1016.91 103.497 1017.07 103.572L1017.75 103.824C1018.53 104.085 1019.15 104.347 1019.62 104.608C1020.11 104.869 1020.52 105.271 1020.85 105.812C1021.19 106.335 1021.36 107.035 1021.36 107.912C1021.36 109.293 1020.86 110.367 1019.87 111.132C1018.9 111.879 1017.63 112.252 1016.07 112.252C1015.15 112.252 1014.3 112.159 1013.52 111.972C1012.73 111.767 1011.95 111.496 1011.17 111.16L1011.98 109.032Z" fill="#2D9CDB"/>
<defs>
<filter id="filter0_d" x="0" y="0" width="456" height="771" filterUnits="userSpaceOnUse" color-interpolation-filters="sRGB">
<feFlood flood-opacity="0" result="BackgroundImageFix"/>
<feColorMatrix in="SourceAlpha" type="matrix" values="0 0 0 0 0 0 0 0 0 0 0 0 0 0 0 0 0 0 127 0"/>
<feOffset dy="4"/>
<feGaussianBlur stdDeviation="2"/>
<feColorMatrix type="matrix" values="0 0 0 0 0 0 0 0 0 0 0 0 0 0 0 0 0 0 0.25 0"/>
<feBlend mode="normal" in2="BackgroundImageFix" result="effect1_dropShadow"/>
<feBlend mode="normal" in="SourceGraphic" in2="effect1_dropShadow" result="shape"/>
</filter>
<filter id="filter1_d" x="740" y="8" width="351" height="344" filterUnits="userSpaceOnUse" color-interpolation-filters="sRGB">
<feFlood flood-opacity="0" result="BackgroundImageFix"/>
<feColorMatrix in="SourceAlpha" type="matrix" values="0 0 0 0 0 0 0 0 0 0 0 0 0 0 0 0 0 0 127 0"/>
<feOffset dy="4"/>
<feGaussianBlur stdDeviation="2"/>
<feColorMatrix type="matrix" values="0 0 0 0 0 0 0 0 0 0 0 0 0 0 0 0 0 0 0.25 0"/>
<feBlend mode="normal" in2="BackgroundImageFix" result="effect1_dropShadow"/>
<feBlend mode="normal" in="SourceGraphic" in2="effect1_dropShadow" result="shape"/>
</filter>
</defs>
</svg>
