<svg width="1440" height="1022" viewBox="0 0 1440 1022" fill="none" xmlns="http://www.w3.org/2000/svg">
<path fill-rule="evenodd" clip-rule="evenodd" d="M0 0V197.5C0 197.5 143.521 72.8823 330.379 0H0Z" fill="#56CCF2"/>
<path d="M14.5 887C14.5 887 300.5 534 725 561C1149.5 588 1440 223 1440 223V901.827H0L14.5 887Z" fill="#56CCF2"/>
<path d="M14.5 887C14.5 887 300.5 534 725 561C1149.5 588 1440 223 1440 223V901.827H0L14.5 887Z" fill="#56CCF2"/>
<path d="M0 623.5C0 623.5 346 291.5 744 482.5C1142 673.5 1440 322 1440 322V1022H0V623.5Z" fill="#2D9CDB"/>
<path d="M0 623.5C0 623.5 346 291.5 744 482.5C1142 673.5 1440 322 1440 322V1022H0V623.5Z" fill="#2D9CDB"/>
</svg>
